<svg data-v-423bf9ae="" xmlns="http://www.w3.org/2000/svg" viewBox="0 0 823 112" class="iconLeftSlogan"><!----><!----><!----><g data-v-423bf9ae="" id="7ae13d62-ece1-4548-b833-13189325c9aa" fill="white" transform="matrix(6.097560881055492,0,0,6.097560881055492,125.0664482958702,-19.390244247231145)"><path d="M1.79 13.02L1.79 13.02L1.16 13.02L1.16 13.02Q0.97 13.02 0.97 12.82L0.97 12.82L0.97 6.08L0.97 6.08Q0.97 5.88 1.16 5.88L1.16 5.88L1.79 5.88L1.79 5.88Q1.99 5.88 1.99 6.08L1.99 6.08L1.99 6.64L2.04 6.64L2.04 6.64Q2.18 6.33 2.58 6.10L2.58 6.10L2.58 6.10Q2.97 5.88 3.50 5.88L3.50 5.88L4.05 5.88L4.05 5.88Q4.23 5.88 4.23 6.08L4.23 6.08L4.23 6.59L4.23 6.59Q4.23 6.69 4.19 6.74L4.19 6.74L4.19 6.74Q4.14 6.79 4.05 6.78L4.05 6.78L3.29 6.78L3.29 6.78Q2.66 6.78 2.32 7.15L2.32 7.15L2.32 7.15Q1.99 7.53 1.99 8.19L1.99 8.19L1.99 12.82L1.99 12.82Q1.99 13.02 1.79 13.02ZM10.39 13.02L10.39 13.02L7.42 13.02L7.42 13.02Q6.45 13.02 5.90 12.47L5.90 12.47L5.90 12.47Q5.35 11.93 5.35 10.95L5.35 10.95L5.35 7.95L5.35 7.95Q5.35 6.97 5.90 6.43L5.90 6.43L5.90 6.43Q6.45 5.88 7.42 5.88L7.42 5.88L8.60 5.88L8.60 5.88Q9.56 5.88 10.11 6.43L10.11 6.43L10.11 6.43Q10.65 6.97 10.65 7.95L10.65 7.95L10.65 9.73L10.65 9.73Q10.65 9.94 10.46 9.94L10.46 9.94L6.50 9.94L6.50 9.94Q6.36 9.94 6.36 10.07L6.36 10.07L6.36 10.92L6.36 10.92Q6.36 12.14 7.53 12.14L7.53 12.14L10.39 12.14L10.39 12.14Q10.58 12.14 10.58 12.33L10.58 12.33L10.58 12.84L10.58 12.84Q10.58 13.02 10.39 13.02ZM6.50 9.20L6.50 9.20L9.52 9.20L9.52 9.20Q9.66 9.20 9.66 9.06L9.66 9.06L9.66 7.98L9.66 7.98Q9.66 6.78 8.48 6.78L8.48 6.78L7.53 6.78L7.53 6.78Q6.36 6.78 6.36 7.98L6.36 7.98L6.36 9.06L6.36 9.06Q6.36 9.20 6.50 9.20ZM16.53 12.32L16.53 12.32L16.53 12.84L16.53 12.84Q16.53 13.02 16.34 13.02L16.34 13.02L14.31 13.02L14.31 13.02Q13.34 13.02 12.79 12.47L12.79 12.47L12.79 12.47Q12.24 11.93 12.24 10.95L12.24 10.95L12.24 7.95L12.24 7.95Q12.24 6.97 12.79 6.43L12.79 6.43L12.79 6.43Q13.34 5.88 14.31 5.88L14.31 5.88L16.34 5.88L16.34 5.88Q16.53 5.88 16.53 6.08L16.53 6.08L16.53 6.59L16.53 6.59Q16.53 6.78 16.34 6.78L16.34 6.78L14.42 6.78L14.42 6.78Q13.26 6.78 13.26 7.99L13.26 7.99L13.26 10.91L13.26 10.91Q13.26 12.12 14.42 12.12L14.42 12.12L16.34 12.12L16.34 12.12Q16.53 12.12 16.53 12.32ZM22.86 13.02L22.86 13.02L19.89 13.02L19.89 13.02Q18.93 13.02 18.38 12.47L18.38 12.47L18.38 12.47Q17.82 11.93 17.82 10.95L17.82 10.95L17.82 7.95L17.82 7.95Q17.82 6.97 18.38 6.43L18.38 6.43L18.38 6.43Q18.93 5.88 19.89 5.88L19.89 5.88L21.07 5.88L21.07 5.88Q22.04 5.88 22.58 6.43L22.58 6.43L22.58 6.43Q23.13 6.97 23.13 7.95L23.13 7.95L23.13 9.73L23.13 9.73Q23.13 9.94 22.93 9.94L22.93 9.94L18.97 9.94L18.97 9.94Q18.83 9.94 18.83 10.07L18.83 10.07L18.83 10.92L18.83 10.92Q18.83 12.14 20.01 12.14L20.01 12.14L22.86 12.14L22.86 12.14Q23.06 12.14 23.06 12.33L23.06 12.33L23.06 12.84L23.06 12.84Q23.06 13.02 22.86 13.02ZM18.97 9.20L18.97 9.20L21.99 9.20L21.99 9.20Q22.13 9.20 22.13 9.06L22.13 9.06L22.13 7.98L22.13 7.98Q22.13 6.78 20.96 6.78L20.96 6.78L20.01 6.78L20.01 6.78Q18.83 6.78 18.83 7.98L18.83 7.98L18.83 9.06L18.83 9.06Q18.83 9.20 18.97 9.20ZM25.12 6.78L25.12 6.78L24.35 6.78L24.35 6.78Q24.15 6.78 24.15 6.59L24.15 6.59L24.15 6.08L24.15 6.08Q24.15 5.88 24.35 5.88L24.35 5.88L25.12 5.88L25.12 5.88Q25.26 5.88 25.26 5.75L25.26 5.75L25.26 4.55L25.26 4.55Q25.26 4.35 25.45 4.35L25.45 4.35L26.08 4.35L26.08 4.35Q26.26 4.35 26.26 4.55L26.26 4.55L26.26 5.75L26.26 5.75Q26.26 5.88 26.42 5.88L26.42 5.88L27.90 5.88L27.90 5.88Q28.11 5.88 28.11 6.08L28.11 6.08L28.11 6.59L28.11 6.59Q28.11 6.78 27.90 6.78L27.90 6.78L26.42 6.78L26.42 6.78Q26.26 6.78 26.26 6.90L26.26 6.90L26.26 10.93L26.26 10.93Q26.26 12.12 27.50 12.12L27.50 12.12L28.04 12.12L28.04 12.12Q28.25 12.12 28.25 12.32L28.25 12.32L28.25 12.84L28.25 12.84Q28.25 13.02 28.04 13.02L28.04 13.02L27.37 13.02L27.37 13.02Q26.40 13.02 25.83 12.48L25.83 12.48L25.83 12.48Q25.26 11.94 25.26 10.98L25.26 10.98L25.26 6.90L25.26 6.90Q25.26 6.78 25.12 6.78ZM32.40 13.02L32.40 13.02L31.67 13.02L31.67 13.02Q30.70 13.02 30.15 12.47L30.15 12.47L30.15 12.47Q29.60 11.93 29.60 10.95L29.60 10.95L29.60 7.95L29.60 7.95Q29.60 6.97 30.15 6.43L30.15 6.43L30.15 6.43Q30.70 5.88 31.67 5.88L31.67 5.88L34.71 5.88L34.71 5.88Q34.90 5.88 34.90 6.08L34.90 6.08L34.90 12.82L34.90 12.82Q34.90 13.02 34.71 13.02L34.71 13.02L34.08 13.02L34.08 13.02Q33.88 13.02 33.88 12.82L33.88 12.82L33.88 12.28L33.82 12.28L33.82 12.28Q33.47 13.02 32.40 13.02ZM33.88 10.84L33.88 10.84L33.88 6.90L33.88 6.90Q33.88 6.78 33.74 6.78L33.74 6.78L31.78 6.78L31.78 6.78Q30.62 6.78 30.62 7.99L30.62 7.99L30.62 10.91L30.62 10.91Q30.62 12.12 31.78 12.12L31.78 12.12L32.58 12.12L32.58 12.12Q33.21 12.12 33.54 11.79L33.54 11.79L33.54 11.79Q33.88 11.45 33.88 10.84ZM39.26 13.02L39.26 13.02L36.76 13.02L36.76 13.02Q36.57 13.02 36.57 12.82L36.57 12.82L36.57 12.33L36.57 12.33Q36.57 12.15 36.76 12.15L36.76 12.15L39.12 12.15L39.12 12.15Q40.21 12.15 40.21 11.34L40.21 11.34L40.21 11.07L40.21 11.07Q40.21 10.33 39.49 10.05L39.49 10.05L37.84 9.35L37.84 9.35Q37.13 9.06 36.82 8.66L36.82 8.66L36.82 8.66Q36.51 8.26 36.51 7.60L36.51 7.60L36.51 7.60Q36.51 5.88 38.40 5.88L38.40 5.88L40.70 5.88L40.70 5.88Q40.89 5.88 40.89 6.08L40.89 6.08L40.89 6.57L40.89 6.57Q40.89 6.75 40.70 6.75L40.70 6.75L38.58 6.75L38.58 6.75Q38.08 6.75 37.82 6.96L37.82 6.96L37.82 6.96Q37.56 7.17 37.56 7.45L37.56 7.45L37.56 7.69L37.56 7.69Q37.56 8.27 38.36 8.58L38.36 8.58L40.01 9.32L40.01 9.32Q40.74 9.60 41.00 10.07L41.00 10.07L41.00 10.07Q41.26 10.53 41.26 11.34L41.26 11.34L41.26 11.34Q41.26 13.02 39.26 13.02ZM49.15 13.02L49.15 13.02L48.33 13.02L48.33 13.02Q47.38 13.02 46.84 12.47L46.84 12.47L46.84 12.47Q46.31 11.93 46.31 10.95L46.31 10.95L46.31 7.95L46.31 7.95Q46.31 6.97 46.84 6.43L46.84 6.43L46.84 6.43Q47.38 5.88 48.33 5.88L48.33 5.88L49.15 5.88L49.15 5.88Q50.25 5.88 50.60 6.62L50.60 6.62L50.65 6.62L50.65 3.37L50.65 3.37Q50.65 3.18 50.83 3.18L50.83 3.18L51.48 3.18L51.48 3.18Q51.66 3.18 51.66 3.37L51.66 3.37L51.66 12.82L51.66 12.82Q51.66 13.02 51.48 13.02L51.48 13.02L50.83 13.02L50.83 13.02Q50.65 13.02 50.65 12.82L50.65 12.82L50.65 12.28L50.60 12.28L50.60 12.28Q50.25 13.02 49.15 13.02ZM50.65 10.84L50.65 10.84L50.65 8.06L50.65 8.06Q50.65 7.45 50.32 7.11L50.32 7.11L50.32 7.11Q49.98 6.78 49.35 6.78L49.35 6.78L48.50 6.78L48.50 6.78Q47.33 6.78 47.33 7.99L47.33 7.99L47.33 10.91L47.33 10.91Q47.33 12.12 48.50 12.12L48.50 12.12L49.35 12.12L49.35 12.12Q49.98 12.12 50.32 11.79L50.32 11.79L50.32 11.79Q50.65 11.45 50.65 10.84ZM58.49 13.02L58.49 13.02L55.52 13.02L55.52 13.02Q54.56 13.02 54.00 12.47L54.00 12.47L54.00 12.47Q53.45 11.93 53.45 10.95L53.45 10.95L53.45 7.95L53.45 7.95Q53.45 6.97 54.00 6.43L54.00 6.43L54.00 6.43Q54.56 5.88 55.52 5.88L55.52 5.88L56.70 5.88L56.70 5.88Q57.67 5.88 58.21 6.43L58.21 6.43L58.21 6.43Q58.76 6.97 58.76 7.95L58.76 7.95L58.76 9.73L58.76 9.73Q58.76 9.94 58.56 9.94L58.56 9.94L54.60 9.94L54.60 9.94Q54.46 9.94 54.46 10.07L54.46 10.07L54.46 10.92L54.46 10.92Q54.46 12.14 55.64 12.14L55.64 12.14L58.49 12.14L58.49 12.14Q58.69 12.14 58.69 12.33L58.69 12.33L58.69 12.84L58.69 12.84Q58.69 13.02 58.49 13.02ZM54.60 9.20L54.60 9.20L57.62 9.20L57.62 9.20Q57.76 9.20 57.76 9.06L57.76 9.06L57.76 7.98L57.76 7.98Q57.76 6.78 56.59 6.78L56.59 6.78L55.64 6.78L55.64 6.78Q54.46 6.78 54.46 7.98L54.46 7.98L54.46 9.06L54.46 9.06Q54.46 9.20 54.60 9.20ZM64.93 13.02L64.93 13.02L64.30 13.02L64.30 13.02Q64.11 13.02 64.11 12.82L64.11 12.82L64.11 3.37L64.11 3.37Q64.11 3.18 64.30 3.18L64.30 3.18L64.93 3.18L64.93 3.18Q65.13 3.18 65.13 3.37L65.13 3.37L65.13 12.82L65.13 12.82Q65.13 13.02 64.93 13.02ZM69.79 13.02L69.79 13.02L69.06 13.02L69.06 13.02Q68.10 13.02 67.54 12.47L67.54 12.47L67.54 12.47Q66.99 11.93 66.99 10.95L66.99 10.95L66.99 7.95L66.99 7.95Q66.99 6.97 67.54 6.43L67.54 6.43L67.54 6.43Q68.10 5.88 69.06 5.88L69.06 5.88L72.10 5.88L72.10 5.88Q72.30 5.88 72.30 6.08L72.30 6.08L72.30 12.82L72.30 12.82Q72.30 13.02 72.10 13.02L72.10 13.02L71.47 13.02L71.47 13.02Q71.27 13.02 71.27 12.82L71.27 12.82L71.27 12.28L71.22 12.28L71.22 12.28Q70.87 13.02 69.79 13.02ZM71.27 10.84L71.27 10.84L71.27 6.90L71.27 6.90Q71.27 6.78 71.13 6.78L71.13 6.78L69.17 6.78L69.17 6.78Q68.01 6.78 68.01 7.99L68.01 7.99L68.01 10.91L68.01 10.91Q68.01 12.12 69.17 12.12L69.17 12.12L69.97 12.12L69.97 12.12Q70.60 12.12 70.94 11.79L70.94 11.79L70.94 11.79Q71.27 11.45 71.27 10.84ZM80.44 13.02L80.44 13.02L79.72 13.02L79.72 13.02Q78.75 13.02 78.20 12.47L78.20 12.47L78.20 12.47Q77.64 11.93 77.64 10.95L77.64 10.95L77.64 7.95L77.64 7.95Q77.64 6.97 78.20 6.43L78.20 6.43L78.20 6.43Q78.75 5.88 79.72 5.88L79.72 5.88L82.75 5.88L82.75 5.88Q82.95 5.88 82.95 6.08L82.95 6.08L82.95 12.82L82.95 12.82Q82.95 13.02 82.75 13.02L82.75 13.02L82.12 13.02L82.12 13.02Q81.93 13.02 81.93 12.82L81.93 12.82L81.93 12.28L81.87 12.28L81.87 12.28Q81.52 13.02 80.44 13.02ZM81.93 10.84L81.93 10.84L81.93 6.90L81.93 6.90Q81.93 6.78 81.79 6.78L81.79 6.78L79.83 6.78L79.83 6.78Q78.67 6.78 78.67 7.99L78.67 7.99L78.67 10.91L78.67 10.91Q78.67 12.12 79.83 12.12L79.83 12.12L80.63 12.12L80.63 12.12Q81.26 12.12 81.59 11.79L81.59 11.79L81.59 11.79Q81.93 11.45 81.93 10.84ZM86.04 12.12L86.04 12.12L88.03 12.12L88.03 12.12Q89.22 12.12 89.22 10.91L89.22 10.91L89.22 7.91L89.22 7.91Q89.22 6.69 88.03 6.69L88.03 6.69L87.21 6.69L87.21 6.69Q86.58 6.69 86.24 7.03L86.24 7.03L86.24 7.03Q85.90 7.36 85.90 7.97L85.90 7.97L85.90 12.00L85.90 12.00Q85.90 12.12 86.04 12.12ZM84.88 12.82L84.88 12.82L84.88 3.37L84.88 3.37Q84.88 3.18 85.08 3.18L85.08 3.18L85.71 3.18L85.71 3.18Q85.90 3.18 85.90 3.37L85.90 3.37L85.90 6.54L85.96 6.54L85.96 6.54Q86.31 5.80 87.39 5.80L87.39 5.80L88.17 5.80L88.17 5.80Q89.12 5.80 89.68 6.34L89.68 6.34L89.68 6.34Q90.23 6.89 90.23 7.85L90.23 7.85L90.23 10.95L90.23 10.95Q90.23 11.93 89.68 12.47L89.68 12.47L89.68 12.47Q89.12 13.02 88.17 13.02L88.17 13.02L85.08 13.02L85.08 13.02Q84.88 13.02 84.88 12.82ZM94.75 13.02L94.75 13.02L93.97 13.02L93.97 13.02Q93.02 13.02 92.48 12.47L92.48 12.47L92.48 12.47Q91.95 11.93 91.95 10.95L91.95 10.95L91.95 6.08L91.95 6.08Q91.95 5.88 92.15 5.88L92.15 5.88L92.78 5.88L92.78 5.88Q92.97 5.88 92.97 6.08L92.97 6.08L92.97 10.91L92.97 10.91Q92.97 12.12 94.14 12.12L94.14 12.12L94.93 12.12L94.93 12.12Q95.56 12.12 95.90 11.79L95.90 11.79L95.90 11.79Q96.24 11.45 96.24 10.84L96.24 10.84L96.24 6.08L96.24 6.08Q96.24 5.88 96.43 5.88L96.43 5.88L97.06 5.88L97.06 5.88Q97.26 5.88 97.26 6.08L97.26 6.08L97.26 12.82L97.26 12.82Q97.26 13.02 97.06 13.02L97.06 13.02L96.43 13.02L96.43 13.02Q96.24 13.02 96.24 12.82L96.24 12.82L96.24 12.28L96.18 12.28L96.18 12.28Q95.83 13.02 94.75 13.02ZM104.09 13.02L104.09 13.02L101.12 13.02L101.12 13.02Q100.16 13.02 99.60 12.47L99.60 12.47L99.60 12.47Q99.05 11.93 99.05 10.95L99.05 10.95L99.05 7.95L99.05 7.95Q99.05 6.97 99.60 6.43L99.60 6.43L99.60 6.43Q100.16 5.88 101.12 5.88L101.12 5.88L102.30 5.88L102.30 5.88Q103.26 5.88 103.81 6.43L103.81 6.43L103.81 6.43Q104.36 6.97 104.36 7.95L104.36 7.95L104.36 9.73L104.36 9.73Q104.36 9.94 104.16 9.94L104.16 9.94L100.20 9.94L100.20 9.94Q100.06 9.94 100.06 10.07L100.06 10.07L100.06 10.92L100.06 10.92Q100.06 12.14 101.23 12.14L101.23 12.14L104.09 12.14L104.09 12.14Q104.29 12.14 104.29 12.33L104.29 12.33L104.29 12.84L104.29 12.84Q104.29 13.02 104.09 13.02ZM100.20 9.20L100.20 9.20L103.22 9.20L103.22 9.20Q103.36 9.20 103.36 9.06L103.36 9.06L103.36 7.98L103.36 7.98Q103.36 6.78 102.19 6.78L102.19 6.78L101.23 6.78L101.23 6.78Q100.06 6.78 100.06 7.98L100.06 7.98L100.06 9.06L100.06 9.06Q100.06 9.20 100.20 9.20ZM106.97 13.02L106.97 13.02L106.34 13.02L106.34 13.02Q106.15 13.02 106.15 12.82L106.15 12.82L106.15 3.37L106.15 3.37Q106.15 3.18 106.34 3.18L106.34 3.18L106.97 3.18L106.97 3.18Q107.17 3.18 107.17 3.37L107.17 3.37L107.17 12.82L107.17 12.82Q107.17 13.02 106.97 13.02ZM111.83 13.02L111.83 13.02L111.10 13.02L111.10 13.02Q110.14 13.02 109.58 12.47L109.58 12.47L109.58 12.47Q109.03 11.93 109.03 10.95L109.03 10.95L109.03 7.95L109.03 7.95Q109.03 6.97 109.58 6.43L109.58 6.43L109.58 6.43Q110.14 5.88 111.10 5.88L111.10 5.88L114.14 5.88L114.14 5.88Q114.34 5.88 114.34 6.08L114.34 6.08L114.34 12.82L114.34 12.82Q114.34 13.02 114.14 13.02L114.14 13.02L113.51 13.02L113.51 13.02Q113.32 13.02 113.32 12.82L113.32 12.82L113.32 12.28L113.26 12.28L113.26 12.28Q112.91 13.02 111.83 13.02ZM113.32 10.84L113.32 10.84L113.32 6.90L113.32 6.90Q113.32 6.78 113.18 6.78L113.18 6.78L111.22 6.78L111.22 6.78Q110.05 6.78 110.05 7.99L110.05 7.99L110.05 10.91L110.05 10.91Q110.05 12.12 111.22 12.12L111.22 12.12L112.01 12.12L112.01 12.12Q112.64 12.12 112.98 11.79L112.98 11.79L112.98 11.79Q113.32 11.45 113.32 10.84Z"></path></g><!----><g data-v-423bf9ae="" id="86b6d94b-96a9-472e-898b-a6cb48c1a2ae" transform="matrix(1.1111134847005208,0,0,1.1111134847005208,0.5094555020875617,0.4442303977867894)" stroke="none" fill="white"><path d="M0 66.828v4.428C1.098 78.679 25.121 100 30.618 100h38.647c5.496 0 29.52-21.321 30.617-28.745v-4.428H0zM71.614 43.042c.178-.138 4.363-3.416 4.585-7.457a1.25 1.25 0 0 0-2.496-.138c-.159 2.894-3.585 5.59-3.619 5.617.068-.054.142-.099.221-.137l-.22.136a1.25 1.25 0 0 0 1.529 1.979zM73.628 59.742c-1.531-.398-4.713-.451-5.791 2.199a1.25 1.25 0 0 0 2.317.941c.522-1.285 2.822-.727 2.846-.721a1.25 1.25 0 1 0 .628-2.419zM97.637 54.542c-4.474 2.049-9.854 7.622-7.916 8.641 1.937 1.019 4.706-.634 7.666-2.979 2.96-2.346 3.582-7.19.25-5.662zM61.918 38.932c-1.984.083-4.756.5-5.922 3.162l-.179.4c-.428.95-.87 1.933-.446 2.971.418 1.026 1.509 1.563 2.412 1.917 2.985 1.168 6.558.515 8.132-1.489.867-1.103.915-2.818.121-4.369-.854-1.67-2.432-2.662-4.118-2.592zm2.032 5.415c-.785 1-3.138 1.535-5.257.706-.858-.336-1.015-.549-1.021-.558.013.018.026.06.026.082-.004-.166.229-.681.397-1.057l.189-.424c.333-.76 1.038-1.554 3.735-1.666 1.052-.044 1.635.932 1.789 1.232.364.706.357 1.411.142 1.685zM45.879 40.212c-2.1-.233-3.716 1.188-5.191 2.664-.718.718-1.805 1.804-1.741 3.219.043.942.568 1.821 1.605 2.685l.433.365c1.905 1.614 3.228 2.514 6.265.742 2.726-1.59 2.892-2.827 2.829-4.401a12.458 12.458 0 0 1-.014-.52c0-2.211-2.61-4.578-4.186-4.754zm1.686 4.754c0 .227.008.436.016.62.038.935.048 1.186-1.59 2.142-1.665.971-1.828.833-3.389-.49l-.448-.378c-.513-.427-.702-.74-.708-.877-.014-.313.731-1.058 1.011-1.338 1.275-1.276 2.247-2.047 3.148-1.947a.112.112 0 0 1-.02-.003c.544.119 1.98 1.457 1.98 2.271zM56.561 53.749c-2.514-1.143-8.519-3.468-9.985-.387-.312.652-.946 1.363-1.505 1.991-.972 1.09-1.891 2.119-1.584 3.334.178.704.714 1.224 1.596 1.544 2.937 1.067 6.611 2.107 8.979.66 1.943-1.187 2.591-3.593 2.939-4.885.06-.222.134-.497.168-.579.264-.623.008-1.398-.608-1.678zm-3.802 5.009c-1.567.957-5.169-.279-6.616-.802.218-.291.543-.66.793-.939.667-.748 1.421-1.596 1.887-2.563.468-.384 2.977.054 5.699 1.143-.284 1.033-.751 2.543-1.763 3.161zm40.517-12.027c-.113-2.714-.481-3.339-1.594-4.566l-.152-.169c-.955-1.061-2.239-1.506-3.617-1.254-2.114.387-3.903 2.264-4.513 3.833-.162.416-.369.821-.569 1.212-.708 1.388-1.59 3.115-.028 5.157 2.014 2.633 4.144 2.804 7.122.571.692-.52 1.203-.82 1.614-1.062 1.553-.915 1.829-1.507 1.737-3.722zM53.9 29.78c-1.739-.263-5.884-.635-6.811 1.589-.745 1.788-.512 5.102-.483 5.473a1.25 1.25 0 0 0 1.068 1.14c.56.081 5.534.75 7.9-.432 1.425-.713 2.113-2.375 1.756-4.234-.38-1.975-1.791-3.4-3.43-3.536zM12.602 38.844l.034-.005c-.534-3.589-.841-5.708-1.377-8.776C8.242 12.813 5.494-.235 3.57.003c-.01 0-.018 0-.023.003l-.015.001-.015.003-.023.004C1.574.28 3.063 15.05 5.883 32c.511 3.074.816 4.243 1.438 7.875 0 0-5.53 4.177-4.374 9.492.861 3.958 5.42 14.332 5.897 14.928-1.103-6.002-1.398-13.729.102-13.729 1-.25 3.438 8 4.875 13.063 0 0-.313-13.813.875-13.875 1.517-.08 2.989 7.23 3.477 13.313.307-.7 2.024-11.899 1.832-15.946-.26-5.433-7.403-8.277-7.403-8.277z"></path><path d="M83.373 56.922c-.315-.737-1.683-2.813-6.615-1.704.046-1.517-.463-2.974-1.506-4.083-1.335-1.42-3.201-1.956-4.87-1.399-1.011.337-2.653 1.342-3.415 4.284-1.672-.634-3.307-.628-4.577.064-1.169.638-1.877 1.803-1.895 3.115-.025 1.972 1.443 3.963 4.03 5.462a1.248 1.248 0 0 0 1.708-.454 1.248 1.248 0 0 0-.454-1.708c-2.068-1.199-2.794-2.474-2.784-3.267.007-.525.325-.808.592-.953.672-.366 1.982-.387 3.646.654.364.229.82.253 1.207.065.388-.187.651-.56.698-.987.236-2.129.978-3.553 2.034-3.904.723-.241 1.608.049 2.258.739.887.944 1.092 2.311.549 3.656a1.248 1.248 0 0 0 1.559 1.652c3.688-1.245 5.347-.692 5.537-.249.213.496-.568 2.099-3.336 3.555a1.25 1.25 0 1 0 1.164 2.212c3.594-1.889 5.39-4.603 4.47-6.75zm-46.892-.776c1.012-1.692 1.121-3.712.675-5.244-.505-1.736-1.662-2.902-3.094-3.118-.93-.14-2.246.08-3.703 1.567-.794-1.249-1.797-2.044-2.898-2.234-1.053-.182-2.059.205-2.759 1.062-1.244 1.521-1.286 4.226-.113 7.235a1.25 1.25 0 0 0 2.329-.908c-1.06-2.719-.675-4.262-.28-4.745.156-.191.283-.199.397-.18.394.068 1.234.674 1.892 2.514a1.252 1.252 0 0 0 2.221.266c1.1-1.668 2.034-2.181 2.542-2.104.429.064.848.592 1.066 1.344.363 1.246.153 3.005-1.133 4.123a1.252 1.252 0 0 0 .421 2.128c2.981 1.008 3.832 2.374 3.676 3.047-.163.704-1.434 1.311-3.469 1.048a1.25 1.25 0 1 0-.32 2.478c3.716.48 5.804-1.142 6.226-2.963.374-1.628-.459-3.767-3.676-5.316z"></path><path d="M32.489 58.288c-.138-.196-1.4-1.92-3.115-2.129-.814-.1-1.591.147-2.246.715a1.25 1.25 0 0 0 1.636 1.891c.163-.141.249-.131.306-.124.424.05 1.074.667 1.38 1.093l-.003-.004a1.251 1.251 0 0 0 2.042-1.442z"></path></g><!----><g data-v-423bf9ae="" id="fb9dc92a-5678-4471-9e2e-fe742664bc34" fill="white" transform="matrix(1.2483619816018325,0,0,1.2483619816018325,130.19461901918015,52.909302827230825)"><path d="M6.59 9.21L6.59 8.71L6.59 8.71Q6.59 8.23 6.41 7.87L6.41 7.87L6.41 7.87Q6.22 7.50 5.89 7.27L5.89 7.27L5.89 7.27Q5.57 7.03 5.15 6.90L5.15 6.90L5.15 6.90Q4.73 6.78 4.27 6.78L4.27 6.78L4.27 6.78Q3.86 6.78 3.50 6.88L3.50 6.88L3.50 6.88Q3.14 6.99 2.85 7.18L2.85 7.18L2.85 7.18Q2.56 7.38 2.39 7.66L2.39 7.66L2.39 7.66Q2.23 7.95 2.23 8.33L2.23 8.33L2.23 8.41L2.23 8.41Q2.23 8.82 2.39 9.11L2.39 9.11L2.39 9.11Q2.56 9.39 2.89 9.60L2.89 9.60L2.89 9.60Q3.22 9.80 3.71 9.93L3.71 9.93L3.71 9.93Q4.20 10.07 4.86 10.16L4.86 10.16L4.86 10.16Q6.40 10.40 7.13 11.07L7.13 11.07L7.13 11.07Q7.85 11.73 7.85 12.85L7.85 12.85L7.85 13.02L7.85 13.02Q7.85 13.65 7.64 14.17L7.64 14.17L7.64 14.17Q7.42 14.70 6.99 15.08L6.99 15.08L6.99 15.08Q6.57 15.46 5.94 15.67L5.94 15.67L5.94 15.67Q5.31 15.88 4.48 15.88L4.48 15.88L4.48 15.88Q3.54 15.88 2.82 15.60L2.82 15.60L2.82 15.60Q2.10 15.33 1.62 14.85L1.62 14.85L1.62 14.85Q1.13 14.36 0.88 13.71L0.88 13.71L0.88 13.71Q0.63 13.06 0.63 12.29L0.63 12.29L0.63 11.87L1.81 11.87L1.81 12.21L1.81 12.21Q1.81 13.50 2.51 14.14L2.51 14.14L2.51 14.14Q3.22 14.78 4.48 14.78L4.48 14.78L4.48 14.78Q5.57 14.78 6.13 14.30L6.13 14.30L6.13 14.30Q6.68 13.82 6.68 13.02L6.68 13.02L6.68 12.94L6.68 12.94Q6.68 12.17 6.11 11.76L6.11 11.76L6.11 11.76Q5.54 11.35 4.27 11.17L4.27 11.17L4.27 11.17Q3.53 11.07 2.93 10.87L2.93 10.87L2.93 10.87Q2.34 10.67 1.92 10.34L1.92 10.34L1.92 10.34Q1.50 10.01 1.27 9.55L1.27 9.55L1.27 9.55Q1.05 9.09 1.05 8.46L1.05 8.46L1.05 8.29L1.05 8.29Q1.05 7.71 1.29 7.24L1.29 7.24L1.29 7.24Q1.53 6.76 1.95 6.41L1.95 6.41L1.95 6.41Q2.38 6.06 2.98 5.87L2.98 5.87L2.98 5.87Q3.57 5.68 4.28 5.68L4.28 5.68L4.28 5.68Q5.11 5.68 5.76 5.92L5.76 5.92L5.76 5.92Q6.41 6.16 6.86 6.56L6.86 6.56L6.86 6.56Q7.31 6.96 7.54 7.50L7.54 7.50L7.54 7.50Q7.77 8.04 7.77 8.62L7.77 8.62L7.77 9.21L6.59 9.21ZM22.67 15.68L21.95 13.24L17.75 13.24L17.04 15.68L15.78 15.68L18.75 5.88L20.96 5.88L23.93 15.68L22.67 15.68ZM19.94 6.38L19.77 6.38L18.07 12.15L21.63 12.15L19.94 6.38ZM31.93 15.68L31.93 14.59L32.77 14.59L32.77 6.97L31.93 6.97L31.93 5.88L35.90 5.88L35.90 5.88Q36.60 5.88 37.13 6.08L37.13 6.08L37.13 6.08Q37.67 6.27 38.05 6.61L38.05 6.61L38.05 6.61Q38.42 6.94 38.60 7.41L38.60 7.41L38.60 7.41Q38.79 7.88 38.79 8.43L38.79 8.43L38.79 8.60L38.79 8.60Q38.79 9.00 38.67 9.34L38.67 9.34L38.67 9.34Q38.54 9.67 38.32 9.94L38.32 9.94L38.32 9.94Q38.09 10.21 37.79 10.39L37.79 10.39L37.79 10.39Q37.49 10.58 37.14 10.68L37.14 10.68L37.14 10.85L37.14 10.85Q37.84 11.05 38.32 11.60L38.32 11.60L38.32 11.60Q38.79 12.15 38.79 12.95L38.79 12.95L38.79 13.12L38.79 13.12Q38.79 13.66 38.60 14.13L38.60 14.13L38.60 14.13Q38.42 14.60 38.05 14.95L38.05 14.95L38.05 14.95Q37.67 15.29 37.13 15.48L37.13 15.48L37.13 15.48Q36.60 15.68 35.90 15.68L35.90 15.68L31.93 15.68ZM33.95 11.31L33.95 14.59L35.81 14.59L35.81 14.59Q36.64 14.59 37.16 14.17L37.16 14.17L37.16 14.17Q37.67 13.76 37.67 13.03L37.67 13.03L37.67 12.95L37.67 12.95Q37.67 12.19 37.18 11.75L37.18 11.75L37.18 11.75Q36.69 11.31 35.85 11.31L35.85 11.31L33.95 11.31ZM33.95 6.97L33.95 10.22L35.85 10.22L35.85 10.22Q36.69 10.22 37.18 9.79L37.18 9.79L37.18 9.79Q37.67 9.35 37.67 8.60L37.67 8.60L37.67 8.51L37.67 8.51Q37.67 7.80 37.16 7.38L37.16 7.38L37.16 7.38Q36.64 6.97 35.81 6.97L35.81 6.97L33.95 6.97ZM47.54 11.87L47.54 9.69L47.54 9.69Q47.54 7.78 48.45 6.73L48.45 6.73L48.45 6.73Q49.36 5.68 50.99 5.68L50.99 5.68L50.99 5.68Q52.61 5.68 53.52 6.73L53.52 6.73L53.52 6.73Q54.43 7.78 54.43 9.69L54.43 9.69L54.43 11.87L54.43 11.87Q54.43 13.83 53.52 14.85L53.52 14.85L53.52 14.85Q52.61 15.88 50.99 15.88L50.99 15.88L50.99 15.88Q49.36 15.88 48.45 14.85L48.45 14.85L48.45 14.85Q47.54 13.83 47.54 11.87L47.54 11.87ZM50.99 14.78L50.99 14.78L50.99 14.78Q52.12 14.78 52.69 14.01L52.69 14.01L52.69 14.01Q53.26 13.23 53.26 11.79L53.26 11.79L53.26 9.77L53.26 9.77Q53.26 8.43 52.69 7.60L52.69 7.60L52.69 7.60Q52.12 6.78 50.99 6.78L50.99 6.78L50.99 6.78Q49.85 6.78 49.29 7.60L49.29 7.60L49.29 7.60Q48.72 8.43 48.72 9.77L48.72 9.77L48.72 11.79L48.72 11.79Q48.72 13.23 49.29 14.01L49.29 14.01L49.29 14.01Q49.85 14.78 50.99 14.78ZM69.62 12.15L69.62 15.68L68.45 15.68L68.45 12.40L68.45 12.40Q68.45 12.04 68.28 11.84L68.28 11.84L68.28 11.84Q68.11 11.65 67.69 11.65L67.69 11.65L64.64 11.65L64.64 15.68L63.46 15.68L63.46 5.88L66.96 5.88L66.96 5.88Q67.72 5.88 68.28 6.10L68.28 6.10L68.28 6.10Q68.84 6.31 69.21 6.68L69.21 6.68L69.21 6.68Q69.58 7.04 69.77 7.53L69.77 7.53L69.77 7.53Q69.96 8.01 69.96 8.54L69.96 8.54L69.96 8.96L69.96 8.96Q69.96 9.51 69.66 10.05L69.66 10.05L69.66 10.05Q69.36 10.60 68.73 10.89L68.73 10.89L68.73 11.06L68.73 11.06Q69.15 11.13 69.38 11.40L69.38 11.40L69.38 11.40Q69.62 11.66 69.62 12.15L69.62 12.15ZM64.64 6.97L64.64 10.56L66.82 10.56L66.82 10.56Q67.82 10.56 68.30 10.13L68.30 10.13L68.30 10.13Q68.78 9.70 68.78 8.88L68.78 8.88L68.78 8.62L68.78 8.62Q68.78 7.88 68.30 7.43L68.30 7.43L68.30 7.43Q67.82 6.97 66.82 6.97L66.82 6.97L64.64 6.97ZM79.16 15.68L79.16 5.88L85.09 5.88L85.09 6.97L80.33 6.97L80.33 10.22L85.01 10.22L85.01 11.31L80.33 11.31L80.33 14.59L85.18 14.59L85.18 15.68L79.16 15.68ZM100.00 9.21L100.00 8.71L100.00 8.71Q100.00 8.23 99.81 7.87L99.81 7.87L99.81 7.87Q99.62 7.50 99.30 7.27L99.30 7.27L99.30 7.27Q98.98 7.03 98.56 6.90L98.56 6.90L98.56 6.90Q98.14 6.78 97.68 6.78L97.68 6.78L97.68 6.78Q97.27 6.78 96.91 6.88L96.91 6.88L96.91 6.88Q96.54 6.99 96.26 7.18L96.26 7.18L96.26 7.18Q95.97 7.38 95.80 7.66L95.80 7.66L95.80 7.66Q95.63 7.95 95.63 8.33L95.63 8.33L95.63 8.41L95.63 8.41Q95.63 8.82 95.80 9.11L95.80 9.11L95.80 9.11Q95.97 9.39 96.30 9.60L96.30 9.60L96.30 9.60Q96.63 9.80 97.12 9.93L97.12 9.93L97.12 9.93Q97.61 10.07 98.27 10.16L98.27 10.16L98.27 10.16Q99.81 10.40 100.53 11.07L100.53 11.07L100.53 11.07Q101.26 11.73 101.26 12.85L101.26 12.85L101.26 13.02L101.26 13.02Q101.26 13.65 101.05 14.17L101.05 14.17L101.05 14.17Q100.83 14.70 100.40 15.08L100.40 15.08L100.40 15.08Q99.97 15.46 99.34 15.67L99.34 15.67L99.34 15.67Q98.71 15.88 97.89 15.88L97.89 15.88L97.89 15.88Q96.95 15.88 96.23 15.60L96.23 15.60L96.23 15.60Q95.51 15.33 95.03 14.85L95.03 14.85L95.03 14.85Q94.54 14.36 94.29 13.71L94.29 13.71L94.29 13.71Q94.04 13.06 94.04 12.29L94.04 12.29L94.04 11.87L95.21 11.87L95.21 12.21L95.21 12.21Q95.21 13.50 95.92 14.14L95.92 14.14L95.92 14.14Q96.63 14.78 97.89 14.78L97.89 14.78L97.89 14.78Q98.98 14.78 99.53 14.30L99.53 14.30L99.53 14.30Q100.09 13.82 100.09 13.02L100.09 13.02L100.09 12.94L100.09 12.94Q100.09 12.17 99.52 11.76L99.52 11.76L99.52 11.76Q98.95 11.35 97.68 11.17L97.68 11.17L97.68 11.17Q96.94 11.07 96.34 10.87L96.34 10.87L96.34 10.87Q95.75 10.67 95.33 10.34L95.33 10.34L95.33 10.34Q94.91 10.01 94.68 9.55L94.68 9.55L94.68 9.55Q94.46 9.09 94.46 8.46L94.46 8.46L94.46 8.29L94.46 8.29Q94.46 7.71 94.70 7.24L94.70 7.24L94.70 7.24Q94.93 6.76 95.36 6.41L95.36 6.41L95.36 6.41Q95.79 6.06 96.38 5.87L96.38 5.87L96.38 5.87Q96.98 5.68 97.69 5.68L97.69 5.68L97.69 5.68Q98.52 5.68 99.17 5.92L99.17 5.92L99.17 5.92Q99.82 6.16 100.27 6.56L100.27 6.56L100.27 6.56Q100.72 6.96 100.95 7.50L100.95 7.50L100.95 7.50Q101.18 8.04 101.18 8.62L101.18 8.62L101.18 9.21L100.00 9.21ZM125.38 11.87L125.38 9.69L125.38 9.69Q125.38 7.78 126.29 6.73L126.29 6.73L126.29 6.73Q127.20 5.68 128.83 5.68L128.83 5.68L128.83 5.68Q130.45 5.68 131.36 6.73L131.36 6.73L131.36 6.73Q132.27 7.78 132.27 9.69L132.27 9.69L132.27 11.87L132.27 11.87Q132.27 13.66 131.51 14.68L131.51 14.68L131.51 14.68Q130.75 15.69 129.37 15.85L129.37 15.85L129.37 16.44L129.37 16.44Q129.37 16.86 129.75 16.86L129.75 16.86L130.93 16.86L130.93 17.86L129.36 17.86L129.36 17.86Q128.88 17.86 128.58 17.56L128.58 17.56L128.58 17.56Q128.28 17.25 128.28 16.77L128.28 16.77L128.28 15.85L128.28 15.85Q126.90 15.68 126.14 14.67L126.14 14.67L126.14 14.67Q125.38 13.66 125.38 11.87L125.38 11.87ZM128.83 14.78L128.83 14.78L128.83 14.78Q129.96 14.78 130.53 14.01L130.53 14.01L130.53 14.01Q131.10 13.23 131.10 11.79L131.10 11.79L131.10 9.77L131.10 9.77Q131.10 8.43 130.53 7.60L130.53 7.60L130.53 7.60Q129.96 6.78 128.83 6.78L128.83 6.78L128.83 6.78Q127.69 6.78 127.13 7.60L127.13 7.60L127.13 7.60Q126.56 8.43 126.56 9.77L126.56 9.77L126.56 11.79L126.56 11.79Q126.56 13.23 127.13 14.01L127.13 14.01L127.13 14.01Q127.69 14.78 128.83 14.78ZM141.04 5.88L142.21 5.88L142.21 12.38L142.21 12.38Q142.21 13.57 142.76 14.17L142.76 14.17L142.76 14.17Q143.32 14.78 144.40 14.78L144.40 14.78L144.40 14.78Q145.47 14.78 146.03 14.17L146.03 14.17L146.03 14.17Q146.58 13.57 146.58 12.38L146.58 12.38L146.58 5.88L147.76 5.88L147.76 12.38L147.76 12.38Q147.76 14.08 146.86 14.98L146.86 14.98L146.86 14.98Q145.96 15.88 144.40 15.88L144.40 15.88L144.40 15.88Q142.83 15.88 141.93 14.98L141.93 14.98L141.93 14.98Q141.04 14.08 141.04 12.38L141.04 12.38L141.04 5.88ZM157.00 15.68L157.00 5.88L162.93 5.88L162.93 6.97L158.17 6.97L158.17 10.22L162.85 10.22L162.85 11.31L158.17 11.31L158.17 14.59L163.02 14.59L163.02 15.68L157.00 15.68ZM189.97 15.68L187.19 5.88L188.45 5.88L191.02 15.18L191.18 15.18L193.75 5.88L195.01 5.88L192.23 15.68L189.97 15.68ZM203.31 5.88L204.48 5.88L204.48 12.38L204.48 12.38Q204.48 13.57 205.04 14.17L205.04 14.17L205.04 14.17Q205.59 14.78 206.67 14.78L206.67 14.78L206.67 14.78Q207.75 14.78 208.30 14.17L208.30 14.17L208.30 14.17Q208.85 13.57 208.85 12.38L208.85 12.38L208.85 5.88L210.03 5.88L210.03 12.38L210.03 12.38Q210.03 14.08 209.13 14.98L209.13 14.98L209.13 14.98Q208.24 15.88 206.67 15.88L206.67 15.88L206.67 15.88Q205.10 15.88 204.20 14.98L204.20 14.98L204.20 14.98Q203.31 14.08 203.31 12.38L203.31 12.38L203.31 5.88ZM219.27 15.68L219.27 5.88L225.20 5.88L225.20 6.97L220.44 6.97L220.44 10.22L225.12 10.22L225.12 11.31L220.44 11.31L220.44 14.59L225.29 14.59L225.29 15.68L219.27 15.68ZM234.74 15.68L234.74 5.88L235.91 5.88L235.91 14.59L241.04 14.59L241.04 15.68L234.74 15.68ZM252.24 15.68L249.47 5.88L250.73 5.88L253.29 15.18L253.46 15.18L256.02 5.88L257.28 5.88L254.51 15.68L252.24 15.68ZM265.97 15.68L265.97 5.88L271.91 5.88L271.91 6.97L267.15 6.97L267.15 10.22L271.82 10.22L271.82 11.31L267.15 11.31L267.15 14.59L271.99 14.59L271.99 15.68L265.97 15.68ZM283.60 5.88L286.43 15.18L286.59 15.18L286.59 5.88L287.77 5.88L287.77 15.68L285.42 15.68L282.59 6.38L282.42 6.38L282.42 15.68L281.25 15.68L281.25 5.88L283.60 5.88ZM318.46 15.68L317.74 13.24L313.54 13.24L312.83 15.68L311.57 15.68L314.54 5.88L316.75 5.88L319.72 15.68L318.46 15.68ZM315.73 6.38L315.56 6.38L313.87 12.15L317.42 12.15L315.73 6.38ZM328.15 15.68L328.15 5.88L329.32 5.88L329.32 14.59L334.45 14.59L334.45 15.68L328.15 15.68ZM362.75 11.65L360.43 11.65L360.43 15.68L359.25 15.68L359.25 5.88L362.75 5.88L362.75 5.88Q363.51 5.88 364.07 6.10L364.07 6.10L364.07 6.10Q364.63 6.31 365.00 6.68L365.00 6.68L365.00 6.68Q365.37 7.04 365.56 7.53L365.56 7.53L365.56 7.53Q365.75 8.01 365.75 8.54L365.75 8.54L365.75 8.96L365.75 8.96Q365.75 9.49 365.56 9.98L365.56 9.98L365.56 9.98Q365.37 10.47 364.99 10.84L364.99 10.84L364.99 10.84Q364.62 11.21 364.06 11.43L364.06 11.43L364.06 11.43Q363.50 11.65 362.75 11.65L362.75 11.65ZM360.43 6.97L360.43 10.56L362.61 10.56L362.61 10.56Q364.57 10.56 364.57 8.88L364.57 8.88L364.57 8.62L364.57 8.62Q364.57 7.88 364.09 7.43L364.09 7.43L364.09 7.43Q363.61 6.97 362.61 6.97L362.61 6.97L360.43 6.97ZM380.73 15.68L380.02 13.24L375.82 13.24L375.10 15.68L373.84 15.68L376.81 5.88L379.02 5.88L381.99 15.68L380.73 15.68ZM378.00 6.38L377.83 6.38L376.14 12.15L379.69 12.15L378.00 6.38ZM395.79 9.21L395.79 8.71L395.79 8.71Q395.79 8.23 395.60 7.87L395.60 7.87L395.60 7.87Q395.42 7.50 395.09 7.27L395.09 7.27L395.09 7.27Q394.77 7.03 394.35 6.90L394.35 6.90L394.35 6.90Q393.93 6.78 393.47 6.78L393.47 6.78L393.47 6.78Q393.06 6.78 392.70 6.88L392.70 6.88L392.70 6.88Q392.34 6.99 392.05 7.18L392.05 7.18L392.05 7.18Q391.76 7.38 391.59 7.66L391.59 7.66L391.59 7.66Q391.43 7.95 391.43 8.33L391.43 8.33L391.43 8.41L391.43 8.41Q391.43 8.82 391.59 9.11L391.59 9.11L391.59 9.11Q391.76 9.39 392.09 9.60L392.09 9.60L392.09 9.60Q392.42 9.80 392.91 9.93L392.91 9.93L392.91 9.93Q393.40 10.07 394.06 10.16L394.06 10.16L394.06 10.16Q395.60 10.40 396.33 11.07L396.33 11.07L396.33 11.07Q397.05 11.73 397.05 12.85L397.05 12.85L397.05 13.02L397.05 13.02Q397.05 13.65 396.84 14.17L396.84 14.17L396.84 14.17Q396.62 14.70 396.19 15.08L396.19 15.08L396.19 15.08Q395.77 15.46 395.14 15.67L395.14 15.67L395.14 15.67Q394.51 15.88 393.68 15.88L393.68 15.88L393.68 15.88Q392.74 15.88 392.02 15.60L392.02 15.60L392.02 15.60Q391.30 15.33 390.82 14.85L390.82 14.85L390.82 14.85Q390.33 14.36 390.08 13.71L390.08 13.71L390.08 13.71Q389.83 13.06 389.83 12.29L389.83 12.29L389.83 11.87L391.01 11.87L391.01 12.21L391.01 12.21Q391.01 13.50 391.71 14.14L391.71 14.14L391.71 14.14Q392.42 14.78 393.68 14.78L393.68 14.78L393.68 14.78Q394.77 14.78 395.32 14.30L395.32 14.30L395.32 14.30Q395.88 13.82 395.88 13.02L395.88 13.02L395.88 12.94L395.88 12.94Q395.88 12.17 395.31 11.76L395.31 11.76L395.31 11.76Q394.74 11.35 393.47 11.17L393.47 11.17L393.47 11.17Q392.73 11.07 392.13 10.87L392.13 10.87L392.13 10.87Q391.54 10.67 391.12 10.34L391.12 10.34L391.12 10.34Q390.70 10.01 390.47 9.55L390.47 9.55L390.47 9.55Q390.25 9.09 390.25 8.46L390.25 8.46L390.25 8.29L390.25 8.29Q390.25 7.71 390.49 7.24L390.49 7.24L390.49 7.24Q390.73 6.76 391.15 6.41L391.15 6.41L391.15 6.41Q391.58 6.06 392.17 5.87L392.17 5.87L392.17 5.87Q392.77 5.68 393.48 5.68L393.48 5.68L393.48 5.68Q394.31 5.68 394.96 5.92L394.96 5.92L394.96 5.92Q395.61 6.16 396.06 6.56L396.06 6.56L396.06 6.56Q396.51 6.96 396.74 7.50L396.74 7.50L396.74 7.50Q396.97 8.04 396.97 8.62L396.97 8.62L396.97 9.21L395.79 9.21ZM411.87 15.68L411.15 13.24L406.95 13.24L406.24 15.68L404.98 15.68L407.95 5.88L410.16 5.88L413.13 15.68L411.87 15.68ZM409.14 6.38L408.97 6.38L407.27 12.15L410.83 12.15L409.14 6.38ZM421.36 6.97L421.36 5.88L424.58 5.88L424.58 5.88Q426.40 5.88 427.24 6.75L427.24 6.75L427.24 6.75Q428.08 7.62 428.08 9.52L428.08 9.52L428.08 12.04L428.08 12.04Q428.08 13.94 427.24 14.81L427.24 14.81L427.24 14.81Q426.40 15.68 424.58 15.68L424.58 15.68L421.36 15.68L421.36 14.57L422.20 14.57L422.20 6.97L421.36 6.97ZM423.37 14.59L424.41 14.59L424.41 14.59Q425.05 14.59 425.52 14.46L425.52 14.46L425.52 14.46Q425.99 14.34 426.30 14.04L426.30 14.04L426.30 14.04Q426.61 13.73 426.75 13.23L426.75 13.23L426.75 13.23Q426.90 12.73 426.90 11.96L426.90 11.96L426.90 9.60L426.90 9.60Q426.90 8.83 426.75 8.33L426.75 8.33L426.75 8.33Q426.61 7.83 426.30 7.53L426.30 7.53L426.30 7.53Q425.99 7.22 425.52 7.10L425.52 7.10L425.52 7.10Q425.05 6.97 424.41 6.97L424.41 6.97L423.37 6.97L423.37 14.59ZM436.74 11.87L436.74 9.69L436.74 9.69Q436.74 7.78 437.65 6.73L437.65 6.73L437.65 6.73Q438.56 5.68 440.19 5.68L440.19 5.68L440.19 5.68Q441.81 5.68 442.72 6.73L442.72 6.73L442.72 6.73Q443.63 7.78 443.63 9.69L443.63 9.69L443.63 11.87L443.63 11.87Q443.63 13.83 442.72 14.85L442.72 14.85L442.72 14.85Q441.81 15.88 440.19 15.88L440.19 15.88L440.19 15.88Q438.56 15.88 437.65 14.85L437.65 14.85L437.65 14.85Q436.74 13.83 436.74 11.87L436.74 11.87ZM440.19 14.78L440.19 14.78L440.19 14.78Q441.32 14.78 441.89 14.01L441.89 14.01L441.89 14.01Q442.46 13.23 442.46 11.79L442.46 11.79L442.46 9.77L442.46 9.77Q442.46 8.43 441.89 7.60L441.89 7.60L441.89 7.60Q441.32 6.78 440.19 6.78L440.19 6.78L440.19 6.78Q439.05 6.78 438.49 7.60L438.49 7.60L438.49 7.60Q437.92 8.43 437.92 9.77L437.92 9.77L437.92 11.79L437.92 11.79Q437.92 13.23 438.49 14.01L438.49 14.01L438.49 14.01Q439.05 14.78 440.19 14.78Z"></path></g></svg>