<svg data-v-423bf9ae="" xmlns="http://www.w3.org/2000/svg" viewBox="0 0 691.2804473120146 60" class="font"><!----><!----><!----><g data-v-423bf9ae="" id="aad12941-17de-4351-8a26-f55ae383cd7a" fill="white" transform="matrix(6.097560881055492,0,0,6.097560881055492,-5.914630805692298,-19.390244247231145)"><path d="M1.79 13.02L1.79 13.02L1.16 13.02L1.16 13.02Q0.97 13.02 0.97 12.82L0.97 12.82L0.97 6.08L0.97 6.08Q0.97 5.88 1.16 5.88L1.16 5.88L1.79 5.88L1.79 5.88Q1.99 5.88 1.99 6.08L1.99 6.08L1.99 6.64L2.04 6.64L2.04 6.64Q2.18 6.33 2.58 6.10L2.58 6.10L2.58 6.10Q2.97 5.88 3.50 5.88L3.50 5.88L4.05 5.88L4.05 5.88Q4.23 5.88 4.23 6.08L4.23 6.08L4.23 6.59L4.23 6.59Q4.23 6.69 4.19 6.74L4.19 6.74L4.19 6.74Q4.14 6.79 4.05 6.78L4.05 6.78L3.29 6.78L3.29 6.78Q2.66 6.78 2.32 7.15L2.32 7.15L2.32 7.15Q1.99 7.53 1.99 8.19L1.99 8.19L1.99 12.82L1.99 12.82Q1.99 13.02 1.79 13.02ZM10.39 13.02L10.39 13.02L7.42 13.02L7.42 13.02Q6.45 13.02 5.90 12.47L5.90 12.47L5.90 12.47Q5.35 11.93 5.35 10.95L5.35 10.95L5.35 7.95L5.35 7.95Q5.35 6.97 5.90 6.43L5.90 6.43L5.90 6.43Q6.45 5.88 7.42 5.88L7.42 5.88L8.60 5.88L8.60 5.88Q9.56 5.88 10.11 6.43L10.11 6.43L10.11 6.43Q10.65 6.97 10.65 7.95L10.65 7.95L10.65 9.73L10.65 9.73Q10.65 9.94 10.46 9.94L10.46 9.94L6.50 9.94L6.50 9.94Q6.36 9.94 6.36 10.07L6.36 10.07L6.36 10.92L6.36 10.92Q6.36 12.14 7.53 12.14L7.53 12.14L10.39 12.14L10.39 12.14Q10.58 12.14 10.58 12.33L10.58 12.33L10.58 12.84L10.58 12.84Q10.58 13.02 10.39 13.02ZM6.50 9.20L6.50 9.20L9.52 9.20L9.52 9.20Q9.66 9.20 9.66 9.06L9.66 9.06L9.66 7.98L9.66 7.98Q9.66 6.78 8.48 6.78L8.48 6.78L7.53 6.78L7.53 6.78Q6.36 6.78 6.36 7.98L6.36 7.98L6.36 9.06L6.36 9.06Q6.36 9.20 6.50 9.20ZM16.53 12.32L16.53 12.32L16.53 12.84L16.53 12.84Q16.53 13.02 16.34 13.02L16.34 13.02L14.31 13.02L14.31 13.02Q13.34 13.02 12.79 12.47L12.79 12.47L12.79 12.47Q12.24 11.93 12.24 10.95L12.24 10.95L12.24 7.95L12.24 7.95Q12.24 6.97 12.79 6.43L12.79 6.43L12.79 6.43Q13.34 5.88 14.31 5.88L14.31 5.88L16.34 5.88L16.34 5.88Q16.53 5.88 16.53 6.08L16.53 6.08L16.53 6.59L16.53 6.59Q16.53 6.78 16.34 6.78L16.34 6.78L14.42 6.78L14.42 6.78Q13.26 6.78 13.26 7.99L13.26 7.99L13.26 10.91L13.26 10.91Q13.26 12.12 14.42 12.12L14.42 12.12L16.34 12.12L16.34 12.12Q16.53 12.12 16.53 12.32ZM22.86 13.02L22.86 13.02L19.89 13.02L19.89 13.02Q18.93 13.02 18.38 12.47L18.38 12.47L18.38 12.47Q17.82 11.93 17.82 10.95L17.82 10.95L17.82 7.95L17.82 7.95Q17.82 6.97 18.38 6.43L18.38 6.43L18.38 6.43Q18.93 5.88 19.89 5.88L19.89 5.88L21.07 5.88L21.07 5.88Q22.04 5.88 22.58 6.43L22.58 6.43L22.58 6.43Q23.13 6.97 23.13 7.95L23.13 7.95L23.13 9.73L23.13 9.73Q23.13 9.94 22.93 9.94L22.93 9.94L18.97 9.94L18.97 9.94Q18.83 9.94 18.83 10.07L18.83 10.07L18.83 10.92L18.83 10.92Q18.83 12.14 20.01 12.14L20.01 12.14L22.86 12.14L22.86 12.14Q23.06 12.14 23.06 12.33L23.06 12.33L23.06 12.84L23.06 12.84Q23.06 13.02 22.86 13.02ZM18.97 9.20L18.97 9.20L21.99 9.20L21.99 9.20Q22.13 9.20 22.13 9.06L22.13 9.06L22.13 7.98L22.13 7.98Q22.13 6.78 20.96 6.78L20.96 6.78L20.01 6.78L20.01 6.78Q18.83 6.78 18.83 7.98L18.83 7.98L18.83 9.06L18.83 9.06Q18.83 9.20 18.97 9.20ZM25.12 6.78L25.12 6.78L24.35 6.78L24.35 6.78Q24.15 6.78 24.15 6.59L24.15 6.59L24.15 6.08L24.15 6.08Q24.15 5.88 24.35 5.88L24.35 5.88L25.12 5.88L25.12 5.88Q25.26 5.88 25.26 5.75L25.26 5.75L25.26 4.55L25.26 4.55Q25.26 4.35 25.45 4.35L25.45 4.35L26.08 4.35L26.08 4.35Q26.26 4.35 26.26 4.55L26.26 4.55L26.26 5.75L26.26 5.75Q26.26 5.88 26.42 5.88L26.42 5.88L27.90 5.88L27.90 5.88Q28.11 5.88 28.11 6.08L28.11 6.08L28.11 6.59L28.11 6.59Q28.11 6.78 27.90 6.78L27.90 6.78L26.42 6.78L26.42 6.78Q26.26 6.78 26.26 6.90L26.26 6.90L26.26 10.93L26.26 10.93Q26.26 12.12 27.50 12.12L27.50 12.12L28.04 12.12L28.04 12.12Q28.25 12.12 28.25 12.32L28.25 12.32L28.25 12.84L28.25 12.84Q28.25 13.02 28.04 13.02L28.04 13.02L27.37 13.02L27.37 13.02Q26.40 13.02 25.83 12.48L25.83 12.48L25.83 12.48Q25.26 11.94 25.26 10.98L25.26 10.98L25.26 6.90L25.26 6.90Q25.26 6.78 25.12 6.78ZM32.40 13.02L32.40 13.02L31.67 13.02L31.67 13.02Q30.70 13.02 30.15 12.47L30.15 12.47L30.15 12.47Q29.60 11.93 29.60 10.95L29.60 10.95L29.60 7.95L29.60 7.95Q29.60 6.97 30.15 6.43L30.15 6.43L30.15 6.43Q30.70 5.88 31.67 5.88L31.67 5.88L34.71 5.88L34.71 5.88Q34.90 5.88 34.90 6.08L34.90 6.08L34.90 12.82L34.90 12.82Q34.90 13.02 34.71 13.02L34.71 13.02L34.08 13.02L34.08 13.02Q33.88 13.02 33.88 12.82L33.88 12.82L33.88 12.28L33.82 12.28L33.82 12.28Q33.47 13.02 32.40 13.02ZM33.88 10.84L33.88 10.84L33.88 6.90L33.88 6.90Q33.88 6.78 33.74 6.78L33.74 6.78L31.78 6.78L31.78 6.78Q30.62 6.78 30.62 7.99L30.62 7.99L30.62 10.91L30.62 10.91Q30.62 12.12 31.78 12.12L31.78 12.12L32.58 12.12L32.58 12.12Q33.21 12.12 33.54 11.79L33.54 11.79L33.54 11.79Q33.88 11.45 33.88 10.84ZM39.26 13.02L39.26 13.02L36.76 13.02L36.76 13.02Q36.57 13.02 36.57 12.82L36.57 12.82L36.57 12.33L36.57 12.33Q36.57 12.15 36.76 12.15L36.76 12.15L39.12 12.15L39.12 12.15Q40.21 12.15 40.21 11.34L40.21 11.34L40.21 11.07L40.21 11.07Q40.21 10.33 39.49 10.05L39.49 10.05L37.84 9.35L37.84 9.35Q37.13 9.06 36.82 8.66L36.82 8.66L36.82 8.66Q36.51 8.26 36.51 7.60L36.51 7.60L36.51 7.60Q36.51 5.88 38.40 5.88L38.40 5.88L40.70 5.88L40.70 5.88Q40.89 5.88 40.89 6.08L40.89 6.08L40.89 6.57L40.89 6.57Q40.89 6.75 40.70 6.75L40.70 6.75L38.58 6.75L38.58 6.75Q38.08 6.75 37.82 6.96L37.82 6.96L37.82 6.96Q37.56 7.17 37.56 7.45L37.56 7.45L37.56 7.69L37.56 7.69Q37.56 8.27 38.36 8.58L38.36 8.58L40.01 9.32L40.01 9.32Q40.74 9.60 41.00 10.07L41.00 10.07L41.00 10.07Q41.26 10.53 41.26 11.34L41.26 11.34L41.26 11.34Q41.26 13.02 39.26 13.02ZM49.15 13.02L49.15 13.02L48.33 13.02L48.33 13.02Q47.38 13.02 46.84 12.47L46.84 12.47L46.84 12.47Q46.31 11.93 46.31 10.95L46.31 10.95L46.31 7.95L46.31 7.95Q46.31 6.97 46.84 6.43L46.84 6.43L46.84 6.43Q47.38 5.88 48.33 5.88L48.33 5.88L49.15 5.88L49.15 5.88Q50.25 5.88 50.60 6.62L50.60 6.62L50.65 6.62L50.65 3.37L50.65 3.37Q50.65 3.18 50.83 3.18L50.83 3.18L51.48 3.18L51.48 3.18Q51.66 3.18 51.66 3.37L51.66 3.37L51.66 12.82L51.66 12.82Q51.66 13.02 51.48 13.02L51.48 13.02L50.83 13.02L50.83 13.02Q50.65 13.02 50.65 12.82L50.65 12.82L50.65 12.28L50.60 12.28L50.60 12.28Q50.25 13.02 49.15 13.02ZM50.65 10.84L50.65 10.84L50.65 8.06L50.65 8.06Q50.65 7.45 50.32 7.11L50.32 7.11L50.32 7.11Q49.98 6.78 49.35 6.78L49.35 6.78L48.50 6.78L48.50 6.78Q47.33 6.78 47.33 7.99L47.33 7.99L47.33 10.91L47.33 10.91Q47.33 12.12 48.50 12.12L48.50 12.12L49.35 12.12L49.35 12.12Q49.98 12.12 50.32 11.79L50.32 11.79L50.32 11.79Q50.65 11.45 50.65 10.84ZM58.49 13.02L58.49 13.02L55.52 13.02L55.52 13.02Q54.56 13.02 54.00 12.47L54.00 12.47L54.00 12.47Q53.45 11.93 53.45 10.95L53.45 10.95L53.45 7.95L53.45 7.95Q53.45 6.97 54.00 6.43L54.00 6.43L54.00 6.43Q54.56 5.88 55.52 5.88L55.52 5.88L56.70 5.88L56.70 5.88Q57.67 5.88 58.21 6.43L58.21 6.43L58.21 6.43Q58.76 6.97 58.76 7.95L58.76 7.95L58.76 9.73L58.76 9.73Q58.76 9.94 58.56 9.94L58.56 9.94L54.60 9.94L54.60 9.94Q54.46 9.94 54.46 10.07L54.46 10.07L54.46 10.92L54.46 10.92Q54.46 12.14 55.64 12.14L55.64 12.14L58.49 12.14L58.49 12.14Q58.69 12.14 58.69 12.33L58.69 12.33L58.69 12.84L58.69 12.84Q58.69 13.02 58.49 13.02ZM54.60 9.20L54.60 9.20L57.62 9.20L57.62 9.20Q57.76 9.20 57.76 9.06L57.76 9.06L57.76 7.98L57.76 7.98Q57.76 6.78 56.59 6.78L56.59 6.78L55.64 6.78L55.64 6.78Q54.46 6.78 54.46 7.98L54.46 7.98L54.46 9.06L54.46 9.06Q54.46 9.20 54.60 9.20ZM64.93 13.02L64.93 13.02L64.30 13.02L64.30 13.02Q64.11 13.02 64.11 12.82L64.11 12.82L64.11 3.37L64.11 3.37Q64.11 3.18 64.30 3.18L64.30 3.18L64.93 3.18L64.93 3.18Q65.13 3.18 65.13 3.37L65.13 3.37L65.13 12.82L65.13 12.82Q65.13 13.02 64.93 13.02ZM69.79 13.02L69.79 13.02L69.06 13.02L69.06 13.02Q68.10 13.02 67.54 12.47L67.54 12.47L67.54 12.47Q66.99 11.93 66.99 10.95L66.99 10.95L66.99 7.95L66.99 7.95Q66.99 6.97 67.54 6.43L67.54 6.43L67.54 6.43Q68.10 5.88 69.06 5.88L69.06 5.88L72.10 5.88L72.10 5.88Q72.30 5.88 72.30 6.08L72.30 6.08L72.30 12.82L72.30 12.82Q72.30 13.02 72.10 13.02L72.10 13.02L71.47 13.02L71.47 13.02Q71.27 13.02 71.27 12.82L71.27 12.82L71.27 12.28L71.22 12.28L71.22 12.28Q70.87 13.02 69.79 13.02ZM71.27 10.84L71.27 10.84L71.27 6.90L71.27 6.90Q71.27 6.78 71.13 6.78L71.13 6.78L69.17 6.78L69.17 6.78Q68.01 6.78 68.01 7.99L68.01 7.99L68.01 10.91L68.01 10.91Q68.01 12.12 69.17 12.12L69.17 12.12L69.97 12.12L69.97 12.12Q70.60 12.12 70.94 11.79L70.94 11.79L70.94 11.79Q71.27 11.45 71.27 10.84ZM80.44 13.02L80.44 13.02L79.72 13.02L79.72 13.02Q78.75 13.02 78.20 12.47L78.20 12.47L78.20 12.47Q77.64 11.93 77.64 10.95L77.64 10.95L77.64 7.95L77.64 7.95Q77.64 6.97 78.20 6.43L78.20 6.43L78.20 6.43Q78.75 5.88 79.72 5.88L79.72 5.88L82.75 5.88L82.75 5.88Q82.95 5.88 82.95 6.08L82.95 6.08L82.95 12.82L82.95 12.82Q82.95 13.02 82.75 13.02L82.75 13.02L82.12 13.02L82.12 13.02Q81.93 13.02 81.93 12.82L81.93 12.82L81.93 12.28L81.87 12.28L81.87 12.28Q81.52 13.02 80.44 13.02ZM81.93 10.84L81.93 10.84L81.93 6.90L81.93 6.90Q81.93 6.78 81.79 6.78L81.79 6.78L79.83 6.78L79.83 6.78Q78.67 6.78 78.67 7.99L78.67 7.99L78.67 10.91L78.67 10.91Q78.67 12.12 79.83 12.12L79.83 12.12L80.63 12.12L80.63 12.12Q81.26 12.12 81.59 11.79L81.59 11.79L81.59 11.79Q81.93 11.45 81.93 10.84ZM86.04 12.12L86.04 12.12L88.03 12.12L88.03 12.12Q89.22 12.12 89.22 10.91L89.22 10.91L89.22 7.91L89.22 7.91Q89.22 6.69 88.03 6.69L88.03 6.69L87.21 6.69L87.21 6.69Q86.58 6.69 86.24 7.03L86.24 7.03L86.24 7.03Q85.90 7.36 85.90 7.97L85.90 7.97L85.90 12.00L85.90 12.00Q85.90 12.12 86.04 12.12ZM84.88 12.82L84.88 12.82L84.88 3.37L84.88 3.37Q84.88 3.18 85.08 3.18L85.08 3.18L85.71 3.18L85.71 3.18Q85.90 3.18 85.90 3.37L85.90 3.37L85.90 6.54L85.96 6.54L85.96 6.54Q86.31 5.80 87.39 5.80L87.39 5.80L88.17 5.80L88.17 5.80Q89.12 5.80 89.68 6.34L89.68 6.34L89.68 6.34Q90.23 6.89 90.23 7.85L90.23 7.85L90.23 10.95L90.23 10.95Q90.23 11.93 89.68 12.47L89.68 12.47L89.68 12.47Q89.12 13.02 88.17 13.02L88.17 13.02L85.08 13.02L85.08 13.02Q84.88 13.02 84.88 12.82ZM94.75 13.02L94.75 13.02L93.97 13.02L93.97 13.02Q93.02 13.02 92.48 12.47L92.48 12.47L92.48 12.47Q91.95 11.93 91.95 10.95L91.95 10.95L91.95 6.08L91.95 6.08Q91.95 5.88 92.15 5.88L92.15 5.88L92.78 5.88L92.78 5.88Q92.97 5.88 92.97 6.08L92.97 6.08L92.97 10.91L92.97 10.91Q92.97 12.12 94.14 12.12L94.14 12.12L94.93 12.12L94.93 12.12Q95.56 12.12 95.90 11.79L95.90 11.79L95.90 11.79Q96.24 11.45 96.24 10.84L96.24 10.84L96.24 6.08L96.24 6.08Q96.24 5.88 96.43 5.88L96.43 5.88L97.06 5.88L97.06 5.88Q97.26 5.88 97.26 6.08L97.26 6.08L97.26 12.82L97.26 12.82Q97.26 13.02 97.06 13.02L97.06 13.02L96.43 13.02L96.43 13.02Q96.24 13.02 96.24 12.82L96.24 12.82L96.24 12.28L96.18 12.28L96.18 12.28Q95.83 13.02 94.75 13.02ZM104.09 13.02L104.09 13.02L101.12 13.02L101.12 13.02Q100.16 13.02 99.60 12.47L99.60 12.47L99.60 12.47Q99.05 11.93 99.05 10.95L99.05 10.95L99.05 7.95L99.05 7.95Q99.05 6.97 99.60 6.43L99.60 6.43L99.60 6.43Q100.16 5.88 101.12 5.88L101.12 5.88L102.30 5.88L102.30 5.88Q103.26 5.88 103.81 6.43L103.81 6.43L103.81 6.43Q104.36 6.97 104.36 7.95L104.36 7.95L104.36 9.73L104.36 9.73Q104.36 9.94 104.16 9.94L104.16 9.94L100.20 9.94L100.20 9.94Q100.06 9.94 100.06 10.07L100.06 10.07L100.06 10.92L100.06 10.92Q100.06 12.14 101.23 12.14L101.23 12.14L104.09 12.14L104.09 12.14Q104.29 12.14 104.29 12.33L104.29 12.33L104.29 12.84L104.29 12.84Q104.29 13.02 104.09 13.02ZM100.20 9.20L100.20 9.20L103.22 9.20L103.22 9.20Q103.36 9.20 103.36 9.06L103.36 9.06L103.36 7.98L103.36 7.98Q103.36 6.78 102.19 6.78L102.19 6.78L101.23 6.78L101.23 6.78Q100.06 6.78 100.06 7.98L100.06 7.98L100.06 9.06L100.06 9.06Q100.06 9.20 100.20 9.20ZM106.97 13.02L106.97 13.02L106.34 13.02L106.34 13.02Q106.15 13.02 106.15 12.82L106.15 12.82L106.15 3.37L106.15 3.37Q106.15 3.18 106.34 3.18L106.34 3.18L106.97 3.18L106.97 3.18Q107.17 3.18 107.17 3.37L107.17 3.37L107.17 12.82L107.17 12.82Q107.17 13.02 106.97 13.02ZM111.83 13.02L111.83 13.02L111.10 13.02L111.10 13.02Q110.14 13.02 109.58 12.47L109.58 12.47L109.58 12.47Q109.03 11.93 109.03 10.95L109.03 10.95L109.03 7.95L109.03 7.95Q109.03 6.97 109.58 6.43L109.58 6.43L109.58 6.43Q110.14 5.88 111.10 5.88L111.10 5.88L114.14 5.88L114.14 5.88Q114.34 5.88 114.34 6.08L114.34 6.08L114.34 12.82L114.34 12.82Q114.34 13.02 114.14 13.02L114.14 13.02L113.51 13.02L113.51 13.02Q113.32 13.02 113.32 12.82L113.32 12.82L113.32 12.28L113.26 12.28L113.26 12.28Q112.91 13.02 111.83 13.02ZM113.32 10.84L113.32 10.84L113.32 6.90L113.32 6.90Q113.32 6.78 113.18 6.78L113.18 6.78L111.22 6.78L111.22 6.78Q110.05 6.78 110.05 7.99L110.05 7.99L110.05 10.91L110.05 10.91Q110.05 12.12 111.22 12.12L111.22 12.12L112.01 12.12L112.01 12.12Q112.64 12.12 112.98 11.79L112.98 11.79L112.98 11.79Q113.32 11.45 113.32 10.84Z"></path></g><!----><!----></svg>