<svg width="800" height="600" xmlns="http://www.w3.org/2000/svg">
 <defs>
  <linearGradient gradientTransform="rotate(25)" id="svg_3" x1="0%" y1="0%" x2="100%" y2="0%">
   <stop offset="0%" stop-color=" rgb(169, 37, 128)"/>
   <stop offset="100%" stop-color=" rgb(247, 188, 0)"/>
  </linearGradient>
 </defs>
 <g>
  <title>Layer 1</title>
  <g id="svg_5">
   <!---->
   <!---->
   <!---->
   <g id="svg_4" fill="#2F190E" transform="matrix(6.09756 0 0 6.09756 125.066 -19.3902)">
    <path id="svg_6" d="m0.25078,52.74444l0,0l-0.63,0l0,0q-0.19,0 -0.19,-0.2l0,0l0,-6.74l0,0q0,-0.2 0.19,-0.2l0,0l0.63,0l0,0q0.2,0 0.2,0.2l0,0l0,0.56l0.05,0l0,0q0.14,-0.31 0.54,-0.54l0,0l0,0q0.39,-0.22 0.92,-0.22l0,0l0.55,0l0,0q0.18,0 0.18,0.2l0,0l0,0.51l0,0q0,0.1 -0.04,0.15l0,0l0,0q-0.05,0.05 -0.14,0.04l0,0l-0.76,0l0,0q-0.63,0 -0.97,0.37l0,0l0,0q-0.33,0.38 -0.33,1.04l0,0l0,4.63l0,0q0,0.2 -0.2,0.2zm8.6,0l0,0l-2.97,0l0,0q-0.97,0 -1.52,-0.55l0,0l0,0q-0.55,-0.54 -0.55,-1.52l0,0l0,-3l0,0q0,-0.98 0.55,-1.52l0,0l0,0q0.55,-0.55 1.52,-0.55l0,0l1.18,0l0,0q0.96,0 1.51,0.55l0,0l0,0q0.54,0.54 0.54,1.52l0,0l0,1.78l0,0q0,0.21 -0.19,0.21l0,0l-3.96,0l0,0q-0.14,0 -0.14,0.13l0,0l0,0.85l0,0q0,1.22 1.17,1.22l0,0l2.86,0l0,0q0.19,0 0.19,0.19l0,0l0,0.51l0,0q0,0.18 -0.19,0.18zm-3.89,-3.82l0,0l3.02,0l0,0q0.14,0 0.14,-0.14l0,0l0,-1.08l0,0q0,-1.2 -1.18,-1.2l0,0l-0.95,0l0,0q-1.17,0 -1.17,1.2l0,0l0,1.08l0,0q0,0.14 0.14,0.14zm10.03,3.12l0,0l0,0.52l0,0q0,0.18 -0.19,0.18l0,0l-2.03,0l0,0q-0.97,0 -1.52,-0.55l0,0l0,0q-0.55,-0.54 -0.55,-1.52l0,0l0,-3l0,0q0,-0.98 0.55,-1.52l0,0l0,0q0.55,-0.55 1.52,-0.55l0,0l2.03,0l0,0q0.19,0 0.19,0.2l0,0l0,0.51l0,0q0,0.19 -0.19,0.19l0,0l-1.92,0l0,0q-1.16,0 -1.16,1.21l0,0l0,2.92l0,0q0,1.21 1.16,1.21l0,0l1.92,0l0,0q0.19,0 0.19,0.2zm6.33,0.7l0,0l-2.97,0l0,0q-0.96,0 -1.51,-0.55l0,0l0,0q-0.56,-0.54 -0.56,-1.52l0,0l0,-3l0,0q0,-0.98 0.56,-1.52l0,0l0,0q0.55,-0.55 1.51,-0.55l0,0l1.18,0l0,0q0.97,0 1.51,0.55l0,0l0,0q0.55,0.54 0.55,1.52l0,0l0,1.78l0,0q0,0.21 -0.2,0.21l0,0l-3.96,0l0,0q-0.14,0 -0.14,0.13l0,0l0,0.85l0,0q0,1.22 1.18,1.22l0,0l2.85,0l0,0q0.2,0 0.2,0.19l0,0l0,0.51l0,0q0,0.18 -0.2,0.18zm-3.89,-3.82l0,0l3.02,0l0,0q0.14,0 0.14,-0.14l0,0l0,-1.08l0,0q0,-1.2 -1.17,-1.2l0,0l-0.95,0l0,0q-1.18,0 -1.18,1.2l0,0l0,1.08l0,0q0,0.14 0.14,0.14zm6.15,-2.42l0,0l-0.77,0l0,0q-0.2,0 -0.2,-0.19l0,0l0,-0.51l0,0q0,-0.2 0.2,-0.2l0,0l0.77,0l0,0q0.14,0 0.14,-0.13l0,0l0,-1.2l0,0q0,-0.2 0.19,-0.2l0,0l0.63,0l0,0q0.18,0 0.18,0.2l0,0l0,1.2l0,0q0,0.13 0.16,0.13l0,0l1.48,0l0,0q0.21,0 0.21,0.2l0,0l0,0.51l0,0q0,0.19 -0.21,0.19l0,0l-1.48,0l0,0q-0.16,0 -0.16,0.12l0,0l0,4.03l0,0q0,1.19 1.24,1.19l0,0l0.54,0l0,0q0.21,0 0.21,0.2l0,0l0,0.52l0,0q0,0.18 -0.21,0.18l0,0l-0.67,0l0,0q-0.97,0 -1.54,-0.54l0,0l0,0q-0.57,-0.54 -0.57,-1.5l0,0l0,-4.08l0,0q0,-0.12 -0.14,-0.12zm7.28,6.24l0,0l-0.73,0l0,0q-0.97,0 -1.52,-0.55l0,0l0,0q-0.55,-0.54 -0.55,-1.52l0,0l0,-3l0,0q0,-0.98 0.55,-1.52l0,0l0,0q0.55,-0.55 1.52,-0.55l0,0l3.04,0l0,0q0.19,0 0.19,0.2l0,0l0,6.74l0,0q0,0.2 -0.19,0.2l0,0l-0.63,0l0,0q-0.2,0 -0.2,-0.2l0,0l0,-0.54l-0.06,0l0,0q-0.35,0.74 -1.42,0.74zm1.48,-2.18l0,0l0,-3.94l0,0q0,-0.12 -0.14,-0.12l0,0l-1.96,0l0,0q-1.16,0 -1.16,1.21l0,0l0,2.92l0,0q0,1.21 1.16,1.21l0,0l0.8,0l0,0q0.63,0 0.96,-0.33l0,0l0,0q0.34,-0.34 0.34,-0.95zm5.38,2.18l0,0l-2.5,0l0,0q-0.19,0 -0.19,-0.2l0,0l0,-0.49l0,0q0,-0.18 0.19,-0.18l0,0l2.36,0l0,0q1.09,0 1.09,-0.81l0,0l0,-0.27l0,0q0,-0.74 -0.72,-1.02l0,0l-1.65,-0.7l0,0q-0.71,-0.29 -1.02,-0.69l0,0l0,0q-0.31,-0.4 -0.31,-1.06l0,0l0,0q0,-1.72 1.89,-1.72l0,0l2.3,0l0,0q0.19,0 0.19,0.2l0,0l0,0.49l0,0q0,0.18 -0.19,0.18l0,0l-2.12,0l0,0q-0.5,0 -0.76,0.21l0,0l0,0q-0.26,0.21 -0.26,0.49l0,0l0,0.24l0,0q0,0.58 0.8,0.89l0,0l1.65,0.74l0,0q0.73,0.28 0.99,0.75l0,0l0,0q0.26,0.46 0.26,1.27l0,0l0,0q0,1.68 -2,1.68zm9.89,0l0,0l-0.82,0l0,0q-0.95,0 -1.49,-0.55l0,0l0,0q-0.53,-0.54 -0.53,-1.52l0,0l0,-3l0,0q0,-0.98 0.53,-1.52l0,0l0,0q0.54,-0.55 1.49,-0.55l0,0l0.82,0l0,0q1.1,0 1.45,0.74l0,0l0.05,0l0,-3.25l0,0q0,-0.19 0.18,-0.19l0,0l0.65,0l0,0q0.18,0 0.18,0.19l0,0l0,9.45l0,0q0,0.2 -0.18,0.2l0,0l-0.65,0l0,0q-0.18,0 -0.18,-0.2l0,0l0,-0.54l-0.05,0l0,0q-0.35,0.74 -1.45,0.74zm1.5,-2.18l0,0l0,-2.78l0,0q0,-0.61 -0.33,-0.95l0,0l0,0q-0.34,-0.33 -0.97,-0.33l0,0l-0.85,0l0,0q-1.17,0 -1.17,1.21l0,0l0,2.92l0,0q0,1.21 1.17,1.21l0,0l0.85,0l0,0q0.63,0 0.97,-0.33l0,0l0,0q0.33,-0.34 0.33,-0.95zm7.84,2.18l0,0l-2.97,0l0,0q-0.96,0 -1.52,-0.55l0,0l0,0q-0.55,-0.54 -0.55,-1.52l0,0l0,-3l0,0q0,-0.98 0.55,-1.52l0,0l0,0q0.56,-0.55 1.52,-0.55l0,0l1.18,0l0,0q0.97,0 1.51,0.55l0,0l0,0q0.55,0.54 0.55,1.52l0,0l0,1.78l0,0q0,0.21 -0.2,0.21l0,0l-3.96,0l0,0q-0.14,0 -0.14,0.13l0,0l0,0.85l0,0q0,1.22 1.18,1.22l0,0l2.85,0l0,0q0.2,0 0.2,0.19l0,0l0,0.51l0,0q0,0.18 -0.2,0.18zm-3.89,-3.82l0,0l3.02,0l0,0q0.14,0 0.14,-0.14l0,0l0,-1.08l0,0q0,-1.2 -1.17,-1.2l0,0l-0.95,0l0,0q-1.18,0 -1.18,1.2l0,0l0,1.08l0,0q0,0.14 0.14,0.14zm10.33,3.82l0,0l-0.63,0l0,0q-0.19,0 -0.19,-0.2l0,0l0,-9.45l0,0q0,-0.19 0.19,-0.19l0,0l0.63,0l0,0q0.2,0 0.2,0.19l0,0l0,9.45l0,0q0,0.2 -0.2,0.2zm4.86,0l0,0l-0.73,0l0,0q-0.96,0 -1.52,-0.55l0,0l0,0q-0.55,-0.54 -0.55,-1.52l0,0l0,-3l0,0q0,-0.98 0.55,-1.52l0,0l0,0q0.56,-0.55 1.52,-0.55l0,0l3.04,0l0,0q0.2,0 0.2,0.2l0,0l0,6.74l0,0q0,0.2 -0.2,0.2l0,0l-0.63,0l0,0q-0.2,0 -0.2,-0.2l0,0l0,-0.54l-0.05,0l0,0q-0.35,0.74 -1.43,0.74zm1.48,-2.18l0,0l0,-3.94l0,0q0,-0.12 -0.14,-0.12l0,0l-1.96,0l0,0q-1.16,0 -1.16,1.21l0,0l0,2.92l0,0q0,1.21 1.16,1.21l0,0l0.8,0l0,0q0.63,0 0.97,-0.33l0,0l0,0q0.33,-0.34 0.33,-0.95zm9.17,2.18l0,0l-0.72,0l0,0q-0.97,0 -1.52,-0.55l0,0l0,0q-0.56,-0.54 -0.56,-1.52l0,0l0,-3l0,0q0,-0.98 0.56,-1.52l0,0l0,0q0.55,-0.55 1.52,-0.55l0,0l3.03,0l0,0q0.2,0 0.2,0.2l0,0l0,6.74l0,0q0,0.2 -0.2,0.2l0,0l-0.63,0l0,0q-0.19,0 -0.19,-0.2l0,0l0,-0.54l-0.06,0l0,0q-0.35,0.74 -1.43,0.74zm1.49,-2.18l0,0l0,-3.94l0,0q0,-0.12 -0.14,-0.12l0,0l-1.96,0l0,0q-1.16,0 -1.16,1.21l0,0l0,2.92l0,0q0,1.21 1.16,1.21l0,0l0.8,0l0,0q0.63,0 0.96,-0.33l0,0l0,0q0.34,-0.34 0.34,-0.95zm4.11,1.28l0,0l1.99,0l0,0q1.19,0 1.19,-1.21l0,0l0,-3l0,0q0,-1.22 -1.19,-1.22l0,0l-0.82,0l0,0q-0.63,0 -0.97,0.34l0,0l0,0q-0.34,0.33 -0.34,0.94l0,0l0,4.03l0,0q0,0.12 0.14,0.12zm-1.16,0.7l0,0l0,-9.45l0,0q0,-0.19 0.2,-0.19l0,0l0.63,0l0,0q0.19,0 0.19,0.19l0,0l0,3.17l0.06,0l0,0q0.35,-0.74 1.43,-0.74l0,0l0.78,0l0,0q0.95,0 1.51,0.54l0,0l0,0q0.55,0.55 0.55,1.51l0,0l0,3.1l0,0q0,0.98 -0.55,1.52l0,0l0,0q-0.56,0.55 -1.51,0.55l0,0l-3.09,0l0,0q-0.2,0 -0.2,-0.2zm9.87,0.2l0,0l-0.78,0l0,0q-0.95,0 -1.49,-0.55l0,0l0,0q-0.53,-0.54 -0.53,-1.52l0,0l0,-4.87l0,0q0,-0.2 0.2,-0.2l0,0l0.63,0l0,0q0.19,0 0.19,0.2l0,0l0,4.83l0,0q0,1.21 1.17,1.21l0,0l0.79,0l0,0q0.63,0 0.97,-0.33l0,0l0,0q0.34,-0.34 0.34,-0.95l0,0l0,-4.76l0,0q0,-0.2 0.19,-0.2l0,0l0.63,0l0,0q0.2,0 0.2,0.2l0,0l0,6.74l0,0q0,0.2 -0.2,0.2l0,0l-0.63,0l0,0q-0.19,0 -0.19,-0.2l0,0l0,-0.54l-0.06,0l0,0q-0.35,0.74 -1.43,0.74zm9.34,0l0,0l-2.97,0l0,0q-0.96,0 -1.52,-0.55l0,0l0,0q-0.55,-0.54 -0.55,-1.52l0,0l0,-3l0,0q0,-0.98 0.55,-1.52l0,0l0,0q0.56,-0.55 1.52,-0.55l0,0l1.18,0l0,0q0.96,0 1.51,0.55l0,0l0,0q0.55,0.54 0.55,1.52l0,0l0,1.78l0,0q0,0.21 -0.2,0.21l0,0l-3.96,0l0,0q-0.14,0 -0.14,0.13l0,0l0,0.85l0,0q0,1.22 1.17,1.22l0,0l2.86,0l0,0q0.2,0 0.2,0.19l0,0l0,0.51l0,0q0,0.18 -0.2,0.18zm-3.89,-3.82l0,0l3.02,0l0,0q0.14,0 0.14,-0.14l0,0l0,-1.08l0,0q0,-1.2 -1.17,-1.2l0,0l-0.96,0l0,0q-1.17,0 -1.17,1.2l0,0l0,1.08l0,0q0,0.14 0.14,0.14zm6.77,3.82l0,0l-0.63,0l0,0q-0.19,0 -0.19,-0.2l0,0l0,-9.45l0,0q0,-0.19 0.19,-0.19l0,0l0.63,0l0,0q0.2,0 0.2,0.19l0,0l0,9.45l0,0q0,0.2 -0.2,0.2zm4.86,0l0,0l-0.73,0l0,0q-0.96,0 -1.52,-0.55l0,0l0,0q-0.55,-0.54 -0.55,-1.52l0,0l0,-3l0,0q0,-0.98 0.55,-1.52l0,0l0,0q0.56,-0.55 1.52,-0.55l0,0l3.04,0l0,0q0.2,0 0.2,0.2l0,0l0,6.74l0,0q0,0.2 -0.2,0.2l0,0l-0.63,0l0,0q-0.19,0 -0.19,-0.2l0,0l0,-0.54l-0.06,0l0,0q-0.35,0.74 -1.43,0.74zm1.49,-2.18l0,0l0,-3.94l0,0q0,-0.12 -0.14,-0.12l0,0l-1.96,0l0,0q-1.17,0 -1.17,1.21l0,0l0,2.92l0,0q0,1.21 1.17,1.21l0,0l0.79,0l0,0q0.63,0 0.97,-0.33l0,0l0,0q0.34,-0.34 0.34,-0.95z"/>
   </g>
   <g id="svg_2" transform="matrix(1.11111 0 0 1.11111 0.509456 0.44423)" fill="url(#svg_3)">
    <path id="svg_7" d="m-3.04694,258.72754l0,4.428c1.098,7.423 25.121,28.744 30.618,28.744l38.647,0c5.496,0 29.52,-21.321 30.617,-28.745l0,-4.428l-99.882,0l0,0.001zm71.614,-23.786c0.178,-0.138 4.363,-3.416 4.585,-7.457a1.25,1.25 0 0 0 -2.496,-0.138c-0.159,2.894 -3.585,5.59 -3.619,5.617c0.068,-0.054 0.142,-0.099 0.221,-0.137l-0.22,0.136a1.25,1.25 0 0 0 1.529,1.979zm2.014,16.7c-1.531,-0.398 -4.713,-0.451 -5.791,2.199a1.25,1.25 0 0 0 2.317,0.941c0.522,-1.285 2.822,-0.727 2.846,-0.721a1.25,1.25 0 1 0 0.628,-2.419zm24.009,-5.2c-4.474,2.049 -9.854,7.622 -7.916,8.641c1.937,1.019 4.706,-0.634 7.666,-2.979c2.96,-2.346 3.582,-7.19 0.25,-5.662zm-35.719,-15.61c-1.984,0.083 -4.756,0.5 -5.922,3.162l-0.179,0.4c-0.428,0.95 -0.87,1.933 -0.446,2.971c0.418,1.026 1.509,1.563 2.412,1.917c2.985,1.168 6.558,0.515 8.132,-1.489c0.867,-1.103 0.915,-2.818 0.121,-4.369c-0.854,-1.67 -2.432,-2.662 -4.118,-2.592zm2.032,5.415c-0.785,1 -3.138,1.535 -5.257,0.706c-0.858,-0.336 -1.015,-0.549 -1.021,-0.558c0.013,0.018 0.026,0.06 0.026,0.082c-0.004,-0.166 0.229,-0.681 0.397,-1.057l0.189,-0.424c0.333,-0.76 1.038,-1.554 3.735,-1.666c1.052,-0.044 1.635,0.932 1.789,1.232c0.364,0.706 0.357,1.411 0.142,1.685zm-18.071,-4.135c-2.1,-0.233 -3.716,1.188 -5.191,2.664c-0.718,0.718 -1.805,1.804 -1.741,3.219c0.043,0.942 0.568,1.821 1.605,2.685l0.433,0.365c1.905,1.614 3.228,2.514 6.265,0.742c2.726,-1.59 2.892,-2.827 2.829,-4.401a12.458,12.458 0 0 1 -0.014,-0.52c0,-2.211 -2.61,-4.578 -4.186,-4.754zm1.686,4.754c0,0.227 0.008,0.436 0.016,0.62c0.038,0.935 0.048,1.186 -1.59,2.142c-1.665,0.971 -1.828,0.833 -3.389,-0.49l-0.448,-0.378c-0.513,-0.427 -0.702,-0.74 -0.708,-0.877c-0.014,-0.313 0.731,-1.058 1.011,-1.338c1.275,-1.276 2.247,-2.047 3.148,-1.947a0.112,0.112 0 0 1 -0.02,-0.003c0.544,0.119 1.98,1.457 1.98,2.271zm8.996,8.783c-2.514,-1.143 -8.519,-3.468 -9.985,-0.387c-0.312,0.652 -0.946,1.363 -1.505,1.991c-0.972,1.09 -1.891,2.119 -1.584,3.334c0.178,0.704 0.714,1.224 1.596,1.544c2.937,1.067 6.611,2.107 8.979,0.66c1.943,-1.187 2.591,-3.593 2.939,-4.885c0.06,-0.222 0.134,-0.497 0.168,-0.579c0.264,-0.623 0.008,-1.398 -0.608,-1.678zm-3.802,5.009c-1.567,0.957 -5.169,-0.279 -6.616,-0.802c0.218,-0.291 0.543,-0.66 0.793,-0.939c0.667,-0.748 1.421,-1.596 1.887,-2.563c0.468,-0.384 2.977,0.054 5.699,1.143c-0.284,1.033 -0.751,2.543 -1.763,3.161zm40.517,-12.027c-0.113,-2.714 -0.481,-3.339 -1.594,-4.566l-0.152,-0.169c-0.955,-1.061 -2.239,-1.506 -3.617,-1.254c-2.114,0.387 -3.903,2.264 -4.513,3.833c-0.162,0.416 -0.369,0.821 -0.569,1.212c-0.708,1.388 -1.59,3.115 -0.028,5.157c2.014,2.633 4.144,2.804 7.122,0.571c0.692,-0.52 1.203,-0.82 1.614,-1.062c1.553,-0.915 1.829,-1.507 1.737,-3.722zm-39.376,-16.951c-1.739,-0.263 -5.884,-0.635 -6.811,1.589c-0.745,1.788 -0.512,5.102 -0.483,5.473a1.25,1.25 0 0 0 1.068,1.14c0.56,0.081 5.534,0.75 7.9,-0.432c1.425,-0.713 2.113,-2.375 1.756,-4.234c-0.38,-1.975 -1.791,-3.4 -3.43,-3.536zm-41.298,9.064l0.034,-0.005c-0.534,-3.589 -0.841,-5.708 -1.377,-8.776c-3.017,-17.25 -5.765,-30.298 -7.689,-30.06c-0.01,0 -0.018,0 -0.023,0.003l-0.015,0.001l-0.015,0.003l-0.023,0.004c-1.92,0.266 -0.431,15.036 2.389,31.986c0.511,3.074 0.816,4.243 1.438,7.875c0,0 -5.53,4.177 -4.374,9.492c0.861,3.958 5.42,14.332 5.897,14.928c-1.103,-6.002 -1.398,-13.729 0.102,-13.729c1,-0.25 3.438,8 4.875,13.063c0,0 -0.313,-13.813 0.875,-13.875c1.517,-0.08 2.989,7.23 3.477,13.313c0.307,-0.7 2.024,-11.899 1.832,-15.946c-0.26,-5.433 -7.403,-8.277 -7.403,-8.277z"/>
    <path id="svg_8" d="m80.32606,248.82154c-0.315,-0.737 -1.683,-2.813 -6.615,-1.704c0.046,-1.517 -0.463,-2.974 -1.506,-4.083c-1.335,-1.42 -3.201,-1.956 -4.87,-1.399c-1.011,0.337 -2.653,1.342 -3.415,4.284c-1.672,-0.634 -3.307,-0.628 -4.577,0.064c-1.169,0.638 -1.877,1.803 -1.895,3.115c-0.025,1.972 1.443,3.963 4.03,5.462a1.248,1.248 0 0 0 1.708,-0.454a1.248,1.248 0 0 0 -0.454,-1.708c-2.068,-1.199 -2.794,-2.474 -2.784,-3.267c0.007,-0.525 0.325,-0.808 0.592,-0.953c0.672,-0.366 1.982,-0.387 3.646,0.654c0.364,0.229 0.82,0.253 1.207,0.065c0.388,-0.187 0.651,-0.56 0.698,-0.987c0.236,-2.129 0.978,-3.553 2.034,-3.904c0.723,-0.241 1.608,0.049 2.258,0.739c0.887,0.944 1.092,2.311 0.549,3.656a1.248,1.248 0 0 0 1.559,1.652c3.688,-1.245 5.347,-0.692 5.537,-0.249c0.213,0.496 -0.568,2.099 -3.336,3.555a1.25,1.25 0 1 0 1.164,2.212c3.594,-1.889 5.39,-4.603 4.47,-6.75zm-46.892,-0.776c1.012,-1.692 1.121,-3.712 0.675,-5.244c-0.505,-1.736 -1.662,-2.902 -3.094,-3.118c-0.93,-0.14 -2.246,0.08 -3.703,1.567c-0.794,-1.249 -1.797,-2.044 -2.898,-2.234c-1.053,-0.182 -2.059,0.205 -2.759,1.062c-1.244,1.521 -1.286,4.226 -0.113,7.235a1.25,1.25 0 0 0 2.329,-0.908c-1.06,-2.719 -0.675,-4.262 -0.28,-4.745c0.156,-0.191 0.283,-0.199 0.397,-0.18c0.394,0.068 1.234,0.674 1.892,2.514a1.252,1.252 0 0 0 2.221,0.266c1.1,-1.668 2.034,-2.181 2.542,-2.104c0.429,0.064 0.848,0.592 1.066,1.344c0.363,1.246 0.153,3.005 -1.133,4.123a1.252,1.252 0 0 0 0.421,2.128c2.981,1.008 3.832,2.374 3.676,3.047c-0.163,0.704 -1.434,1.311 -3.469,1.048a1.25,1.25 0 1 0 -0.32,2.478c3.716,0.48 5.804,-1.142 6.226,-2.963c0.374,-1.628 -0.459,-3.767 -3.676,-5.316z"/>
    <path id="svg_9" d="m29.44206,250.18754c-0.138,-0.196 -1.4,-1.92 -3.115,-2.129c-0.814,-0.1 -1.591,0.147 -2.246,0.715a1.25,1.25 0 0 0 1.636,1.891c0.163,-0.141 0.249,-0.131 0.306,-0.124c0.424,0.05 1.074,0.667 1.38,1.093l-0.003,-0.004a1.251,1.251 0 0 0 2.042,-1.442z"/>
   </g>
   <!---->
   <g id="svg_1" fill="#2F190E" transform="matrix(1.24836 0 0 1.24836 130.195 52.9093)">
    <path id="svg_10" d="m-0.92825,212.04831l0,-0.5l0,0q0,-0.48 -0.18,-0.84l0,0l0,0q-0.19,-0.37 -0.52,-0.6l0,0l0,0q-0.32,-0.24 -0.74,-0.37l0,0l0,0q-0.42,-0.12 -0.88,-0.12l0,0l0,0q-0.41,0 -0.77,0.1l0,0l0,0q-0.36,0.11 -0.65,0.3l0,0l0,0q-0.29,0.2 -0.46,0.48l0,0l0,0q-0.16,0.29 -0.16,0.67l0,0l0,0.08l0,0q0,0.41 0.16,0.7l0,0l0,0q0.17,0.28 0.5,0.49l0,0l0,0q0.33,0.2 0.82,0.33l0,0l0,0q0.49,0.14 1.15,0.23l0,0l0,0q1.54,0.24 2.27,0.91l0,0l0,0q0.72,0.66 0.72,1.78l0,0l0,0.17l0,0q0,0.63 -0.21,1.15l0,0l0,0q-0.22,0.53 -0.65,0.91l0,0l0,0q-0.42,0.38 -1.05,0.59l0,0l0,0q-0.63,0.21 -1.46,0.21l0,0l0,0q-0.94,0 -1.66,-0.28l0,0l0,0q-0.72,-0.27 -1.2,-0.75l0,0l0,0q-0.49,-0.49 -0.74,-1.14l0,0l0,0q-0.25,-0.65 -0.25,-1.42l0,0l0,-0.42l1.18,0l0,0.34l0,0q0,1.29 0.7,1.93l0,0l0,0q0.71,0.64 1.97,0.64l0,0l0,0q1.09,0 1.65,-0.48l0,0l0,0q0.55,-0.48 0.55,-1.28l0,0l0,-0.08l0,0q0,-0.77 -0.57,-1.18l0,0l0,0q-0.57,-0.41 -1.84,-0.59l0,0l0,0q-0.74,-0.1 -1.34,-0.3l0,0l0,0q-0.59,-0.2 -1.01,-0.53l0,0l0,0q-0.42,-0.33 -0.65,-0.79l0,0l0,0q-0.22,-0.46 -0.22,-1.09l0,0l0,-0.17l0,0q0,-0.58 0.24,-1.05l0,0l0,0q0.24,-0.48 0.66,-0.83l0,0l0,0q0.43,-0.35 1.03,-0.54l0,0l0,0q0.59,-0.19 1.3,-0.19l0,0l0,0q0.83,0 1.48,0.24l0,0l0,0q0.65,0.24 1.1,0.64l0,0l0,0q0.45,0.4 0.68,0.94l0,0l0,0q0.23,0.54 0.23,1.12l0,0l0,0.59l-1.18,0zm16.08,6.47l-0.72,-2.44l-4.2,0l-0.71,2.44l-1.26,0l2.97,-9.8l2.21,0l2.97,9.8l-1.26,0zm-2.73,-9.3l-0.17,0l-1.7,5.77l3.56,0l-1.69,-5.77zm11.99,9.3l0,-1.09l0.84,0l0,-7.62l-0.84,0l0,-1.09l3.97,0l0,0q0.7,0 1.23,0.2l0,0l0,0q0.54,0.19 0.92,0.53l0,0l0,0q0.37,0.33 0.55,0.8l0,0l0,0q0.19,0.47 0.19,1.02l0,0l0,0.17l0,0q0,0.4 -0.12,0.74l0,0l0,0q-0.13,0.33 -0.35,0.6l0,0l0,0q-0.23,0.27 -0.53,0.45l0,0l0,0q-0.3,0.19 -0.65,0.29l0,0l0,0.17l0,0q0.7,0.2 1.18,0.75l0,0l0,0q0.47,0.55 0.47,1.35l0,0l0,0.17l0,0q0,0.54 -0.19,1.01l0,0l0,0q-0.18,0.47 -0.55,0.82l0,0l0,0q-0.38,0.34 -0.92,0.53l0,0l0,0q-0.53,0.2 -1.23,0.2l0,0l-3.97,0zm2.02,-4.37l0,3.28l1.86,0l0,0q0.83,0 1.35,-0.42l0,0l0,0q0.51,-0.41 0.51,-1.14l0,0l0,-0.08l0,0q0,-0.76 -0.49,-1.2l0,0l0,0q-0.49,-0.44 -1.33,-0.44l0,0l-1.9,0zm0,-4.34l0,3.25l1.9,0l0,0q0.84,0 1.33,-0.43l0,0l0,0q0.49,-0.44 0.49,-1.19l0,0l0,-0.09l0,0q0,-0.71 -0.51,-1.13l0,0l0,0q-0.52,-0.41 -1.35,-0.41l0,0l-1.86,0zm13.59,4.9l0,-2.18l0,0q0,-1.91 0.91,-2.96l0,0l0,0q0.91,-1.05 2.54,-1.05l0,0l0,0q1.62,0 2.53,1.05l0,0l0,0q0.91,1.05 0.91,2.96l0,0l0,2.18l0,0q0,1.96 -0.91,2.98l0,0l0,0q-0.91,1.03 -2.53,1.03l0,0l0,0q-1.63,0 -2.54,-1.03l0,0l0,0q-0.91,-1.02 -0.91,-2.98l0,0zm3.45,2.91l0,0l0,0q1.13,0 1.7,-0.77l0,0l0,0q0.57,-0.78 0.57,-2.22l0,0l0,-2.02l0,0q0,-1.34 -0.57,-2.17l0,0l0,0q-0.57,-0.82 -1.7,-0.82l0,0l0,0q-1.14,0 -1.7,0.82l0,0l0,0q-0.57,0.83 -0.57,2.17l0,0l0,2.02l0,0q0,1.44 0.57,2.22l0,0l0,0q0.56,0.77 1.7,0.77zm18.63,-2.63l0,3.53l-1.17,0l0,-3.28l0,0q0,-0.36 -0.17,-0.56l0,0l0,0q-0.17,-0.19 -0.59,-0.19l0,0l-3.05,0l0,4.03l-1.18,0l0,-9.8l3.5,0l0,0q0.76,0 1.32,0.22l0,0l0,0q0.56,0.21 0.93,0.58l0,0l0,0q0.37,0.36 0.56,0.85l0,0l0,0q0.19,0.48 0.19,1.01l0,0l0,0.42l0,0q0,0.55 -0.3,1.09l0,0l0,0q-0.3,0.55 -0.93,0.84l0,0l0,0.17l0,0q0.42,0.07 0.65,0.34l0,0l0,0q0.24,0.26 0.24,0.75l0,0zm-4.98,-5.18l0,3.59l2.18,0l0,0q1,0 1.48,-0.43l0,0l0,0q0.48,-0.43 0.48,-1.25l0,0l0,-0.26l0,0q0,-0.74 -0.48,-1.19l0,0l0,0q-0.48,-0.46 -1.48,-0.46l0,0l-2.18,0zm14.52,8.71l0,-9.8l5.93,0l0,1.09l-4.76,0l0,3.25l4.68,0l0,1.09l-4.68,0l0,3.28l4.85,0l0,1.09l-6.02,0zm20.84,-6.47l0,-0.5l0,0q0,-0.48 -0.19,-0.84l0,0l0,0q-0.19,-0.37 -0.51,-0.6l0,0l0,0q-0.32,-0.24 -0.74,-0.37l0,0l0,0q-0.42,-0.12 -0.88,-0.12l0,0l0,0q-0.41,0 -0.77,0.1l0,0l0,0q-0.37,0.11 -0.65,0.3l0,0l0,0q-0.29,0.2 -0.46,0.48l0,0l0,0q-0.17,0.29 -0.17,0.67l0,0l0,0.08l0,0q0,0.41 0.17,0.7l0,0l0,0q0.17,0.28 0.5,0.49l0,0l0,0q0.33,0.2 0.82,0.33l0,0l0,0q0.49,0.14 1.15,0.23l0,0l0,0q1.54,0.24 2.26,0.91l0,0l0,0q0.73,0.66 0.73,1.78l0,0l0,0.17l0,0q0,0.63 -0.21,1.15l0,0l0,0q-0.22,0.53 -0.65,0.91l0,0l0,0q-0.43,0.38 -1.06,0.59l0,0l0,0q-0.63,0.21 -1.45,0.21l0,0l0,0q-0.94,0 -1.66,-0.28l0,0l0,0q-0.72,-0.27 -1.2,-0.75l0,0l0,0q-0.49,-0.49 -0.74,-1.14l0,0l0,0q-0.25,-0.65 -0.25,-1.42l0,0l0,-0.42l1.17,0l0,0.34l0,0q0,1.29 0.71,1.93l0,0l0,0q0.71,0.64 1.97,0.64l0,0l0,0q1.09,0 1.64,-0.48l0,0l0,0q0.56,-0.48 0.56,-1.28l0,0l0,-0.08l0,0q0,-0.77 -0.57,-1.18l0,0l0,0q-0.57,-0.41 -1.84,-0.59l0,0l0,0q-0.74,-0.1 -1.34,-0.3l0,0l0,0q-0.59,-0.2 -1.01,-0.53l0,0l0,0q-0.42,-0.33 -0.65,-0.79l0,0l0,0q-0.22,-0.46 -0.22,-1.09l0,0l0,-0.17l0,0q0,-0.58 0.24,-1.05l0,0l0,0q0.23,-0.48 0.66,-0.83l0,0l0,0q0.43,-0.35 1.02,-0.54l0,0l0,0q0.6,-0.19 1.31,-0.19l0,0l0,0q0.83,0 1.48,0.24l0,0l0,0q0.65,0.24 1.1,0.64l0,0l0,0q0.45,0.4 0.68,0.94l0,0l0,0q0.23,0.54 0.23,1.12l0,0l0,0.59l-1.18,0zm25.38,2.66l0,-2.18l0,0q0,-1.91 0.91,-2.96l0,0l0,0q0.91,-1.05 2.54,-1.05l0,0l0,0q1.62,0 2.53,1.05l0,0l0,0q0.91,1.05 0.91,2.96l0,0l0,2.18l0,0q0,1.79 -0.76,2.81l0,0l0,0q-0.76,1.01 -2.14,1.17l0,0l0,0.59l0,0q0,0.42 0.38,0.42l0,0l1.18,0l0,1l-1.57,0l0,0q-0.48,0 -0.78,-0.3l0,0l0,0q-0.3,-0.31 -0.3,-0.79l0,0l0,-0.92l0,0q-1.38,-0.17 -2.14,-1.18l0,0l0,0q-0.76,-1.01 -0.76,-2.8l0,0zm3.45,2.91l0,0l0,0q1.13,0 1.7,-0.77l0,0l0,0q0.57,-0.78 0.57,-2.22l0,0l0,-2.02l0,0q0,-1.34 -0.57,-2.17l0,0l0,0q-0.57,-0.82 -1.7,-0.82l0,0l0,0q-1.14,0 -1.7,0.82l0,0l0,0q-0.57,0.83 -0.57,2.17l0,0l0,2.02l0,0q0,1.44 0.57,2.22l0,0l0,0q0.56,0.77 1.7,0.77zm12.21,-8.9l1.17,0l0,6.5l0,0q0,1.19 0.55,1.79l0,0l0,0q0.56,0.61 1.64,0.61l0,0l0,0q1.07,0 1.63,-0.61l0,0l0,0q0.55,-0.6 0.55,-1.79l0,0l0,-6.5l1.18,0l0,6.5l0,0q0,1.7 -0.9,2.6l0,0l0,0q-0.9,0.9 -2.46,0.9l0,0l0,0q-1.57,0 -2.47,-0.9l0,0l0,0q-0.89,-0.9 -0.89,-2.6l0,0l0,-6.5zm15.96,9.8l0,-9.8l5.93,0l0,1.09l-4.76,0l0,3.25l4.68,0l0,1.09l-4.68,0l0,3.28l4.85,0l0,1.09l-6.02,0zm32.97,0l-2.78,-9.8l1.26,0l2.57,9.3l0.16,0l2.57,-9.3l1.26,0l-2.78,9.8l-2.26,0zm13.34,-9.8l1.17,0l0,6.5l0,0q0,1.19 0.56,1.79l0,0l0,0q0.55,0.61 1.63,0.61l0,0l0,0q1.08,0 1.63,-0.61l0,0l0,0q0.55,-0.6 0.55,-1.79l0,0l0,-6.5l1.18,0l0,6.5l0,0q0,1.7 -0.9,2.6l0,0l0,0q-0.89,0.9 -2.46,0.9l0,0l0,0q-1.57,0 -2.47,-0.9l0,0l0,0q-0.89,-0.9 -0.89,-2.6l0,0l0,-6.5zm15.96,9.8l0,-9.8l5.93,0l0,1.09l-4.76,0l0,3.25l4.68,0l0,1.09l-4.68,0l0,3.28l4.85,0l0,1.09l-6.02,0zm15.47,0l0,-9.8l1.17,0l0,8.71l5.13,0l0,1.09l-6.3,0zm17.5,0l-2.77,-9.8l1.26,0l2.56,9.3l0.17,0l2.56,-9.3l1.26,0l-2.77,9.8l-2.27,0zm13.73,0l0,-9.8l5.94,0l0,1.09l-4.76,0l0,3.25l4.67,0l0,1.09l-4.67,0l0,3.28l4.84,0l0,1.09l-6.02,0zm17.63,-9.8l2.83,9.3l0.16,0l0,-9.3l1.18,0l0,9.8l-2.35,0l-2.83,-9.3l-0.17,0l0,9.3l-1.17,0l0,-9.8l2.35,0zm34.86,9.8l-0.72,-2.44l-4.2,0l-0.71,2.44l-1.26,0l2.97,-9.8l2.21,0l2.97,9.8l-1.26,0zm-2.73,-9.3l-0.17,0l-1.69,5.77l3.55,0l-1.69,-5.77zm12.42,9.3l0,-9.8l1.17,0l0,8.71l5.13,0l0,1.09l-6.3,0zm34.6,-4.03l-2.32,0l0,4.03l-1.18,0l0,-9.8l3.5,0l0,0q0.76,0 1.32,0.22l0,0l0,0q0.56,0.21 0.93,0.58l0,0l0,0q0.37,0.36 0.56,0.85l0,0l0,0q0.19,0.48 0.19,1.01l0,0l0,0.42l0,0q0,0.53 -0.19,1.02l0,0l0,0q-0.19,0.49 -0.57,0.86l0,0l0,0q-0.37,0.37 -0.93,0.59l0,0l0,0q-0.56,0.22 -1.31,0.22l0,0zm-2.32,-4.68l0,3.59l2.18,0l0,0q1.96,0 1.96,-1.68l0,0l0,-0.26l0,0q0,-0.74 -0.48,-1.19l0,0l0,0q-0.48,-0.46 -1.48,-0.46l0,0l-2.18,0zm20.3,8.71l-0.71,-2.44l-4.2,0l-0.72,2.44l-1.26,0l2.97,-9.8l2.21,0l2.97,9.8l-1.26,0zm-2.73,-9.3l-0.17,0l-1.69,5.77l3.55,0l-1.69,-5.77zm17.79,2.83l0,-0.5l0,0q0,-0.48 -0.19,-0.84l0,0l0,0q-0.18,-0.37 -0.51,-0.6l0,0l0,0q-0.32,-0.24 -0.74,-0.37l0,0l0,0q-0.42,-0.12 -0.88,-0.12l0,0l0,0q-0.41,0 -0.77,0.1l0,0l0,0q-0.36,0.11 -0.65,0.3l0,0l0,0q-0.29,0.2 -0.46,0.48l0,0l0,0q-0.16,0.29 -0.16,0.67l0,0l0,0.08l0,0q0,0.41 0.16,0.7l0,0l0,0q0.17,0.28 0.5,0.49l0,0l0,0q0.33,0.2 0.82,0.33l0,0l0,0q0.49,0.14 1.15,0.23l0,0l0,0q1.54,0.24 2.27,0.91l0,0l0,0q0.72,0.66 0.72,1.78l0,0l0,0.17l0,0q0,0.63 -0.21,1.15l0,0l0,0q-0.22,0.53 -0.65,0.91l0,0l0,0q-0.42,0.38 -1.05,0.59l0,0l0,0q-0.63,0.21 -1.46,0.21l0,0l0,0q-0.94,0 -1.66,-0.28l0,0l0,0q-0.72,-0.27 -1.2,-0.75l0,0l0,0q-0.49,-0.49 -0.74,-1.14l0,0l0,0q-0.25,-0.65 -0.25,-1.42l0,0l0,-0.42l1.18,0l0,0.34l0,0q0,1.29 0.7,1.93l0,0l0,0q0.71,0.64 1.97,0.64l0,0l0,0q1.09,0 1.64,-0.48l0,0l0,0q0.56,-0.48 0.56,-1.28l0,0l0,-0.08l0,0q0,-0.77 -0.57,-1.18l0,0l0,0q-0.57,-0.41 -1.84,-0.59l0,0l0,0q-0.74,-0.1 -1.34,-0.3l0,0l0,0q-0.59,-0.2 -1.01,-0.53l0,0l0,0q-0.42,-0.33 -0.65,-0.79l0,0l0,0q-0.22,-0.46 -0.22,-1.09l0,0l0,-0.17l0,0q0,-0.58 0.24,-1.05l0,0l0,0q0.24,-0.48 0.66,-0.83l0,0l0,0q0.43,-0.35 1.02,-0.54l0,0l0,0q0.6,-0.19 1.31,-0.19l0,0l0,0q0.83,0 1.48,0.24l0,0l0,0q0.65,0.24 1.1,0.64l0,0l0,0q0.45,0.4 0.68,0.94l0,0l0,0q0.23,0.54 0.23,1.12l0,0l0,0.59l-1.18,0zm16.08,6.47l-0.72,-2.44l-4.2,0l-0.71,2.44l-1.26,0l2.97,-9.8l2.21,0l2.97,9.8l-1.26,0zm-2.73,-9.3l-0.17,0l-1.7,5.77l3.56,0l-1.69,-5.77zm12.22,0.59l0,-1.09l3.22,0l0,0q1.82,0 2.66,0.87l0,0l0,0q0.84,0.87 0.84,2.77l0,0l0,2.52l0,0q0,1.9 -0.84,2.77l0,0l0,0q-0.84,0.87 -2.66,0.87l0,0l-3.22,0l0,-1.11l0.84,0l0,-7.6l-0.84,0zm2.01,7.62l1.04,0l0,0q0.64,0 1.11,-0.13l0,0l0,0q0.47,-0.12 0.78,-0.42l0,0l0,0q0.31,-0.31 0.45,-0.81l0,0l0,0q0.15,-0.5 0.15,-1.27l0,0l0,-2.36l0,0q0,-0.77 -0.15,-1.27l0,0l0,0q-0.14,-0.5 -0.45,-0.8l0,0l0,0q-0.31,-0.31 -0.78,-0.43l0,0l0,0q-0.47,-0.13 -1.11,-0.13l0,0l-1.04,0l0,7.62zm13.37,-2.72l0,-2.18l0,0q0,-1.91 0.91,-2.96l0,0l0,0q0.91,-1.05 2.54,-1.05l0,0l0,0q1.62,0 2.53,1.05l0,0l0,0q0.91,1.05 0.91,2.96l0,0l0,2.18l0,0q0,1.96 -0.91,2.98l0,0l0,0q-0.91,1.03 -2.53,1.03l0,0l0,0q-1.63,0 -2.54,-1.03l0,0l0,0q-0.91,-1.02 -0.91,-2.98l0,0zm3.45,2.91l0,0l0,0q1.13,0 1.7,-0.77l0,0l0,0q0.57,-0.78 0.57,-2.22l0,0l0,-2.02l0,0q0,-1.34 -0.57,-2.17l0,0l0,0q-0.57,-0.82 -1.7,-0.82l0,0l0,0q-1.14,0 -1.7,0.82l0,0l0,0q-0.57,0.83 -0.57,2.17l0,0l0,2.02l0,0q0,1.44 0.57,2.22l0,0l0,0q0.56,0.77 1.7,0.77z"/>
   </g>
  </g>
 </g>
</svg>